<svg xmlns="http://www.w3.org/2000/svg" width="137" height="69" viewBox="0 0 100 50"><path fill="#CCD7E6" d="M50 0H0v50h50c5.6-16.1 5.7-33.9 0-50z"/><path fill="#003882" d="M50 0c5.7 16.1 5.6 33.9 0 50h50V0H50zm11.6 24.2c0 .5-.4.8-.8.8h-1.7c-.5 0-.8-.4-.8-.8v-15c0-.5.4-.8.8-.8h1.7c.5 0 .8.4.8.8v15zm16.7 0c0 .5-.4.8-.8.8h-1.6c-.5 0-.8-.4-.8-.8V18h-6.6v6.2c0 .5-.4.8-.8.8h-1.6c-.5 0-.8-.4-.8-.8v-15c0-.5.4-.8.8-.8h1.7c.5 0 .8.4.8.8v6h6.6v-6c0-.5.4-.8.8-.8h1.6c.5 0 .8.4.8.8l-.1 15zm17.1.8h-2.3c-.5 0-.8-.4-1.1-.8l-4.3-6.9-2.8 3v3.9c0 .5-.4.8-.8.8h-1.5c-.5 0-.8-.4-.8-.8v-15c0-.5.4-.8.8-.8h1.5c.5 0 .8.4.8.8v6.6L91.1 9c.7-.7 1-.7 1.4-.7h2.2c.5 0 .5.4.1.8l-5.1 5.8 5.9 9.3c.4.4.3.8-.2.8z"/><path fill="#FFF" d="M95.7 24.2c.3.5.1.8-.3.8h-2.3c-.5 0-.8-.4-1.1-.8l-4.3-6.9-2.8 3v3.9c0 .5-.4.8-.8.8h-1.5c-.5 0-.8-.4-.8-.8v-15c0-.5.4-.8.8-.8h1.5c.5 0 .8.4.8.8v6.6L91.1 9c.7-.7 1-.7 1.4-.7h2.2c.5 0 .5.4.1.8l-5.1 5.8 6 9.3zM60.8 8.3h-1.7c-.5 0-.8.4-.8.8v15c0 .5.4.8.8.8h1.7c.5 0 .8-.4.8-.8v-15c.1-.4-.3-.8-.8-.8zm16.7 0h-1.6c-.5 0-.8.4-.8.8v6h-6.6v-6c0-.5-.4-.8-.8-.8H66c-.5 0-.8.4-.8.8v15c0 .5.4.8.8.8h1.6c.5 0 .8-.4.8-.8v-6.2H75v6.2c0 .5.4.8.8.8h1.6c.5 0 .8-.4.8-.8v-15c.1-.4-.3-.8-.7-.8z"/></svg>