<svg xmlns="http://www.w3.org/2000/svg" width="137" height="69" viewBox="0 0 100.2 50"><path fill="#CCD7E6" d="M50.2 0H0v50h50.4C57 33 56 14.2 50.2 0z"/><path fill="#003882" d="M100.2 50H50.4c6.3-16.3 5.8-35.6-.3-50h50v50z"/><path fill="#003882" d="M52.8 14.2c-.8-3.4-3.4-5.6-7.3-5.6h-5.9c-.5 0-.8.4-.8.8v15c0 .5.4.9.8.9H46c3.3 0 6.3-2.6 6.8-5.9 0 0 .3-1.6.3-2.6 0-1.1-.3-2.6-.3-2.6zm-3 2.7c0 .5-.1 1.3-.1 1.3-.3 2.5-2.2 4.3-4.5 4.3H42v-11h3.2c2 0 4 1.4 4.5 4.1 0-.1.1.8.1 1.3z"/><path fill="#FFF" d="M92 9.4c.4-.4.3-.8-.1-.8h-2.2c-.4 0-.7-.1-1.4.7L82.1 16V9.4c0-.4-.3-.8-.8-.8h-1.5c-.4 0-.8.4-.8.8v14.9c0 .5.3.8.8.8h1.5c.4 0 .8-.4.8-.8v-3.9l2.8-3 4.3 6.9c.3.5.7.8 1.1.8h2.3c.4 0 .6-.4.3-.8L87.1 15 92 9.4zm-35.7 15c0 .5.3.8.8.8h1.7c.5 0 .8-.5.8-.9V9.4c0-.4-.3-.8-.8-.8h-1.7c-.5 0-.8.4-.8.8v15zm16.3-15c0-.4.3-.8.8-.8H75c.4 0 .8.4.8.8v14.9c0 .5-.3.8-.8.8h-1.7c-.4 0-.8-.4-.8-.8v-6.1h-6.7v6.1c0 .5-.3.8-.8.8h-1.7c-.5 0-.8-.4-.8-.8V9.4c0-.4.3-.8.8-.8H65c.4 0 .8.4.8.8v6h6.6l.2-6z"/></svg>