<?xml version="1.0" encoding="utf-8"?>
<!-- Generator: Adobe Illustrator 26.0.1, SVG Export Plug-In . SVG Version: 6.00 Build 0)  -->
<svg version="1.1" id="Ebene_1" xmlns="http://www.w3.org/2000/svg" xmlns:xlink="http://www.w3.org/1999/xlink" x="0px" y="0px"
	 width="125px" height="134px" viewBox="0 0 125 134" enable-background="new 0 0 125 134" xml:space="preserve">
<polygon fill="#FFCC00" points="31.319,70.285 32.806,70.285 32.806,90.281 29.337,90.281 29.337,70.285 "/>
<polygon fill="#FF0000" points="31.319,50.19 32.806,50.19 32.806,70.285 29.337,70.285 29.337,50.19 "/>
<path d="M20.318,37.292c0.991,1.6,1.784,1.6,2.974,1.6c-0.991-0.8-1.685-1.8-1.982-2.3l-1.883-2.999c-0.198-0.9-0.694-1.8-1.387-2.4
	c0.198-0.1,0.396-0.2,0.595-0.3c-1.189,0-2.379-0.6-3.072-0.6c-0.396,0-0.694,0.3-0.694,0.6c0,0.4,0.396,0.8,1.09,0.8
	c0.198,0,0.396,0,0.595-0.1c0.396,0.5,0.694,1,0.694,1.7c0,1.3-1.585,2.3-3.172,2.3c-0.1,0-0.198,0-0.298,0
	c-0.1-0.3-0.595-0.9-0.595-1.5c0-1,0.694-1.9,0.694-2.899c0-0.6-0.298-1-0.396-1.2c0.198-0.2,0.396-0.4,0.496-0.6
	c-0.1,0-0.198,0.1-0.396,0.1c-0.793,0-1.387-0.2-1.982-0.2c-0.298,0-0.396,0.1-0.396,0.2v0.1c-0.1-0.1-0.198-0.1-0.396-0.1
	s-0.396-0.1-0.595-0.1c-0.694,0-0.991,0.3-0.991,0.6c0,0.2,0.198,0.6,0.396,0.9c0.298-0.1,0.595-0.2,0.793-0.2
	c0.396,0,0.694,0.4,0.892,0.8c-0.298,0-0.298,0-0.595,0c-0.694,0-1.189-0.3-1.289-0.3l0,0c0,0.1,0.198,0.4,0.595,0.5
	c0.496,0.2,1.289,0.3,1.387,0.3c0,0-0.1,0.3-0.298,0.3h-0.1c-0.496-0.1-0.694-0.2-1.387-0.4l0,0c0,0.3,0.694,0.9,1.387,1.1
	c-0.496,0.7-1.189,1.4-1.487,2.4c-0.1,0-0.198,0-0.298,0c-1.585,0-3.172-1-3.172-2.3c0-0.7,0.298-1.2,0.694-1.7
	c0.198,0,0.396,0.1,0.595,0.1c0.694,0,1.09-0.4,1.09-0.8c0-0.3-0.298-0.6-0.694-0.6c-0.694,0-1.883,0.6-3.072,0.6
	c0.1,0.1,0.298,0.2,0.595,0.3c-0.694,0.6-1.189,1.5-1.387,2.4l-1.883,2.999c-0.298,0.5-0.992,1.5-1.983,2.3
	c1.189,0,1.982,0,2.974-1.6l0.991-1.5c0.1,0.2,0.198,0.4,0.298,0.6l-1.883,3.099c-0.298,0.5-0.991,1.5-1.982,2.3
	c1.189,0,1.982,0,2.974-1.6l1.585-2.599c0.1,0.1,0.298,0.3,0.396,0.4l-2.28,3.699c-0.298,0.5-0.992,1.5-1.983,2.3
	c1.189,0,1.982,0,2.974-1.6l2.28-3.599c0.1,0.1,0.298,0.2,0.496,0.3l-2.776,4.399c-0.298,0.5-0.991,1.5-1.982,2.3
	c1.189,0,1.982,0,2.974-1.6l2.775-4.599c0.198,0.1,0.298,0.1,0.496,0.2l-3.172,5.099c-0.298,0.5-0.991,1.5-1.982,2.3
	c1.189,0,1.982,0,2.974-1.6l3.37-5.499h0.1c0.1,0.3,0.198,0.6,0.198,0.8c0,1.7-1.09,3.199-2.478,4.399c0.1,0,0.198,0.1,0.396,0.1
	c0.298,0,0.496,0,0.595,0c-0.298,0.7-0.991,1.6-1.289,2.1c-0.396-0.1-1.09-0.1-1.487-0.1s-0.496,0.3-0.496,0.5
	c0,0.4,0.198,0.7,0.396,0.9c0.1-0.2,0.198-0.5,1.09-0.5c0,0,0,0,0.1,0c-0.198,0.3-0.991,0.9-0.991,1.4c0,0.3,0.396,0.8,0.793,0.8
	c0-0.1,0-0.2,0-0.3c0-0.4,0.298-0.9,0.595-1.2c0,0.1,0,0.1,0,0.2c0,0.9,0.1,1.4,0.694,1.4c0.298,0,0.496-0.2,0.595-0.2
	c-0.198-0.4-0.198-0.7-0.198-1.2c0-0.1,0-0.3,0-0.5c0-0.1,0-0.3,0-0.4c0.198,0,0.298,0,0.496,0c0,0,0.793-0.1,0.991,0.4
	c0.198-0.2,0.595-0.5,0.595-0.8c0-0.2-0.1-0.5-0.496-0.5c-0.198,0-0.694,0.1-1.09,0.1c0.1-0.3,0.595-1,1.09-1.6
	c0.1,0.2,0.198,0.4,0.396,0.6c0-0.4,0.198-1.5,0.793-2.1c0.1,0.4,0.198,0.9,0.198,1.8c0,2.3-0.595,3.999-1.685,4.399
	c0.198,0.3,0.496,0.5,0.793,0.5c0.396,0,0.694-0.5,0.892-1c0.1,0.3,0.496,1.2,0.793,1.2s0.694-0.8,0.793-1.2
	c0.198,0.5,0.496,1,0.892,1c0.298,0,0.694-0.2,0.793-0.5c-1.189-0.3-1.685-2-1.685-4.399c0-1,0.1-1.4,0.198-1.8
	c0.595,0.7,0.793,1.8,0.793,2.1c0.198-0.2,0.298-0.4,0.396-0.6c0.396,0.5,0.991,1.3,1.09,1.6c-0.396,0-0.892-0.1-1.09-0.1
	c-0.396,0-0.496,0.2-0.496,0.5c0,0.3,0.298,0.6,0.595,0.8c0.198-0.4,0.991-0.4,0.991-0.4c0.198,0,0.198,0,0.496,0c0,0.1,0,0.3,0,0.4
	c0,0.2,0,0.3,0,0.5c0,0.5,0,0.8-0.396,1.2c0.1,0,0.298,0.2,0.595,0.2c0.595,0,0.694-0.4,0.694-1.4c0-0.1,0-0.1,0-0.2
	c0.298,0.3,0.595,0.8,0.595,1.2c0,0.1,0,0.2,0,0.3c0.496,0,0.793-0.5,0.793-0.8c0-0.5-0.694-1.1-0.991-1.4h0.1
	c0.793,0,0.991,0.3,1.09,0.5c0.198-0.2,0.396-0.5,0.396-0.9c0-0.2,0-0.5-0.496-0.5c-0.396,0-1.09,0.1-1.487,0.1
	c-0.298-0.5-0.991-1.4-1.289-2.1c0.1,0,0.298,0,0.595,0c0.1,0,0.298,0,0.396-0.1c-1.387-1.2-2.478-2.699-2.478-4.399
	c0-0.3,0.1-0.6,0.198-0.8h0.1l3.37,5.499c0.991,1.6,1.784,1.6,2.974,1.6c-0.991-0.8-1.685-1.8-1.982-2.3l-3.172-5.099
	c0.198-0.1,0.298-0.1,0.496-0.2l2.775,4.599c0.991,1.6,1.784,1.6,2.974,1.6c-0.991-0.8-1.685-1.7-1.982-2.3l-3.072-4.499
	c0.198-0.1,0.298-0.2,0.496-0.3l2.28,3.599c0.991,1.6,1.784,1.6,2.974,1.6c-0.991-0.8-1.685-1.7-1.982-2.3l-2.28-3.599
	c0.1-0.1,0.298-0.3,0.396-0.4l1.585,2.599c0.991,1.6,1.784,1.6,2.974,1.6c-0.991-0.8-1.685-1.8-1.982-2.3l-1.883-3.099
	c0.1-0.2,0.198-0.4,0.298-0.6L20.318,37.292z M5.154,33.793c0-1.1,0.793-2,1.09-2.3c0.1,0,0.1,0,0.198,0
	c-0.298,0.4-0.892,1-0.892,1.9c0,1.7,1.784,3.099,3.766,3.099c0,0.1,0,0.3,0,0.4c0,0.2,0,0.5,0,0.7
	C7.136,37.592,5.154,35.793,5.154,33.793z M8.226,47.49L8.226,47.49L8.226,47.49c0.694,0,0.991,0,1.189,0c0.1,0,0.198,0,0.298,0
	c0.198,0,0.298,0,0.298,0.2c0,0.1-0.198,0.4-0.298,0.5c-0.198-0.2-0.595-0.3-0.991-0.3c-0.198,0-0.496,0-0.694,0.1l0,0l0,0v0.1
	c0,0.1,0,0.3,0,0.5v0.2v0.3c0,0.5,0.1,0.9,0.298,1.1c0,0-0.1,0-0.198,0c-0.298,0-0.396-0.1-0.396-1.1c0-0.2,0-0.4,0-0.5v-0.2l0,0
	c-0.496,0.4-0.991,1.1-1.09,1.6c-0.396-0.2-0.496-0.4-0.496-0.6c0-0.3,0.396-0.7,0.892-1.2l0.298-0.3l0,0h-0.1
	c-0.1,0-0.298-0.1-0.496-0.1c-0.496,0-0.892,0.1-1.09,0.3c-0.1-0.1-0.1-0.4-0.1-0.5c0-0.1,0-0.2,0.1-0.2c0,0,0.1,0,0.198,0l0,0
	c0.595,0,1.289,0.1,1.585,0.2l0,0l0,0c0-0.1,1.189-1.6,1.487-2.4c0.1,0,0.1,0,0.198,0c0.198,0,0.298,0.2,0.396,0.4
	C8.82,46.29,8.325,46.99,8.226,47.49z M14.371,45.091c0.1,0,0.198,0,0.198,0c0.298,0.8,1.387,2.3,1.487,2.4l0,0l0,0
	c0.298,0,0.991-0.2,1.585-0.2l0,0c0.1,0,0.1,0,0.198,0c0,0,0.1,0.1,0.1,0.2c0,0.1-0.1,0.4-0.1,0.5c-0.198-0.2-0.595-0.3-1.09-0.3
	c-0.198,0-0.396,0-0.496,0.1l0,0l0,0l0.298,0.3c0.496,0.5,0.892,0.9,0.892,1.2c0,0.2-0.198,0.4-0.298,0.5c0-0.5-0.595-1.2-1.09-1.6
	l0,0v0.2c0,0.1,0,0.3,0,0.5c0,1-0.1,1.1-0.396,1.1c-0.1,0-0.1,0-0.198,0c0.198-0.2,0.298-0.5,0.298-1.1v-0.3v-0.2c0-0.2,0-0.4,0-0.5
	v-0.1h-0.1c-0.198,0-0.496-0.1-0.694-0.1c-0.496,0-0.793,0-0.991,0.3c-0.198-0.1-0.298-0.3-0.298-0.5s0.1-0.2,0.298-0.2
	c0.1,0,0.198,0,0.298,0c0.198,0,0.496,0.1,1.189,0.1l0,0l0,0c-0.198-0.5-0.595-1.1-1.289-2
	C14.074,45.191,14.074,45.091,14.371,45.091z M11.695,31.693c-0.1-0.3-0.198-0.6-0.396-0.8c-0.198-0.2-0.496-0.5-0.892-0.5
	c-0.198,0-0.496,0.1-0.694,0.2c-0.1-0.1-0.198-0.4-0.198-0.6c0-0.1,0.198-0.3,0.694-0.3c0.991,0,1.685,0.5,1.685,1.3
	C11.894,31.293,11.794,31.493,11.695,31.693z M12.19,30.694c0-0.2-0.1-0.4-0.198-0.6c0-0.2,0.1-0.4,0.396-0.2
	c-0.198,0.2,0,0.5,0,0.5s0.396-0.2,0.298-0.4C13.083,30.094,12.686,30.794,12.19,30.694z M14.173,37.592c0-0.2,0-0.5,0-0.7
	c0-0.1,0-0.3,0-0.4c1.982,0,3.766-1.5,3.766-3.099c0-0.8-0.496-1.5-0.892-1.9c0.1,0,0.1,0,0.198,0c0.298,0.3,1.09,1.2,1.09,2.3
	C18.336,35.693,16.353,37.592,14.173,37.592z"/>
<polygon points="32.806,30.294 32.806,50.29 31.319,50.29 29.337,50.29 29.337,30.294 "/>
<path d="M3.951,1.202c-0.294-0.19-0.662-0.327-1.06-0.327c-0.724,0-1.207,0.39-1.207,1.096c0,0.664,0.462,0.906,0.84,1.117
	l0.966,0.548C4.402,4.153,5.032,4.637,5.032,5.66c0,1.233-0.871,2.118-2.404,2.118c-0.966,0-1.763-0.379-1.858-0.442
	C0.749,7.061,0.717,6.324,0.717,6.176c0-0.38,0.105-0.537,0.378-0.537c0.095,0,0.178,0.021,0.242,0.052l0.252,1.128
	C1.809,6.988,2.25,7.156,2.702,7.156c0.871,0,1.312-0.474,1.312-1.149c0-0.717-0.483-0.949-1.375-1.465L1.988,4.163
	c-0.704-0.411-1.292-0.896-1.292-1.95c0-1.223,0.987-1.96,2.32-1.96c0.934,0,1.428,0.253,1.69,0.4c0,0,0.042,0.917,0.042,1.033
	c0,0.327-0.094,0.527-0.367,0.527c-0.084,0-0.168-0.011-0.231-0.032L3.951,1.202z"/>
<path d="M10.668,7.061l0.766,0.106c0,0,0.011,0.042,0.011,0.084c0,0.189-0.137,0.316-0.389,0.337L9.671,7.715V7.019H9.65
	C9.482,7.24,9.02,7.778,8.097,7.778c-1.123,0-1.648-0.664-1.648-1.907V3.183L5.703,3.067c0,0-0.011-0.063-0.011-0.105
	c0-0.179,0.137-0.306,0.389-0.327l1.428-0.137v3.32c0,0.959,0.504,1.18,0.966,1.18c0.535,0,0.892-0.232,1.134-0.506V3.183
	L8.863,3.067c0,0-0.011-0.063-0.011-0.105c0-0.179,0.137-0.306,0.389-0.327l1.428-0.137V7.061z"/>
<path d="M13.68,3.183h0.031c0.242-0.306,0.683-0.748,1.533-0.748c1.102,0,1.942,0.822,1.942,2.424c0,2.002-1.165,2.877-2.698,2.877
	c-0.305,0-0.546-0.042-0.745-0.095v1.55l0.609,0.137c0.105,0.022,0.147,0.053,0.147,0.137c0,0.106-0.073,0.264-0.105,0.295h-2.393
	c0,0-0.011-0.063-0.011-0.095c0-0.189,0.126-0.284,0.326-0.348l0.367-0.126V3.183l-0.745-0.116c0,0-0.011-0.063-0.011-0.105
	c0-0.179,0.137-0.306,0.389-0.327l1.428-0.137L13.68,3.183z M13.743,6.84c0.189,0.137,0.472,0.274,0.861,0.274
	c0.913,0,1.48-0.622,1.48-2.108c0-1.212-0.577-1.771-1.312-1.771c-0.504,0-0.819,0.222-1.029,0.411V6.84z"/>
<path d="M19.663,3.183h0.031c0.242-0.306,0.683-0.748,1.533-0.748c1.102,0,1.942,0.822,1.942,2.424c0,2.002-1.165,2.877-2.698,2.877
	c-0.305,0-0.546-0.042-0.745-0.095v1.55l0.609,0.137c0.105,0.022,0.147,0.053,0.147,0.137c0,0.106-0.073,0.264-0.105,0.295h-2.393
	c0,0-0.011-0.063-0.011-0.095c0-0.189,0.126-0.284,0.326-0.348l0.367-0.126V3.183l-0.745-0.116c0,0-0.011-0.063-0.011-0.105
	c0-0.179,0.137-0.306,0.389-0.327l1.428-0.137L19.663,3.183z M19.726,6.84c0.189,0.137,0.472,0.274,0.861,0.274
	c0.913,0,1.48-0.622,1.48-2.108c0-1.212-0.577-1.771-1.312-1.771c-0.504,0-0.819,0.222-1.029,0.411V6.84z"/>
<path d="M29.047,5.059c0,1.823-1.27,2.719-2.551,2.719c-1.312,0-2.393-0.843-2.393-2.613c0-1.781,1.259-2.73,2.593-2.73
	C28.008,2.435,29.047,3.225,29.047,5.059z M25.226,5.101c0,1.413,0.567,2.045,1.344,2.045c0.777,0,1.354-0.611,1.354-2.023
	c0-1.412-0.577-2.066-1.354-2.066C25.793,3.056,25.226,3.678,25.226,5.101z"/>
<path d="M31.586,3.404h0.032c0.22-0.358,0.608-0.97,1.291-0.97c0.493,0,0.724,0.232,0.724,0.558c0,0.232-0.105,0.432-0.189,0.537
	c-0.084-0.042-0.346-0.158-0.704-0.158c-0.577,0-0.871,0.232-1.092,0.537v3.172l0.756,0.137c0.105,0.021,0.147,0.053,0.147,0.137
	c0,0.105-0.084,0.263-0.105,0.295h-2.541c0,0-0.011-0.063-0.011-0.095c0-0.189,0.126-0.274,0.326-0.348l0.368-0.127V3.183
	l-0.745-0.116c0,0-0.011-0.063-0.011-0.105c0-0.179,0.137-0.306,0.389-0.327l1.428-0.137L31.586,3.404z"/>
<path d="M37.265,3.141h-1.438v3.077c0,0.474,0.147,0.864,0.672,0.864c0.41,0,0.745-0.179,0.829-0.253
	c0.053,0.084,0.095,0.242,0.095,0.348c0,0.105-0.367,0.601-1.323,0.601c-0.955,0-1.333-0.558-1.333-1.37V3.141h-0.787
	c0,0-0.011-0.064-0.011-0.095c0-0.2,0.126-0.316,0.326-0.358l0.514-0.127l0.241-1.422h0.777v1.422h1.554L37.265,3.141z"/>
<path d="M39.154,5.122c0.01,1.307,0.629,1.918,1.532,1.918c0.672,0,1.05-0.263,1.312-0.485c0.105,0.084,0.157,0.263,0.157,0.358
	c0,0.263-0.693,0.864-1.859,0.864c-1.291,0-2.257-0.738-2.257-2.571c0-1.834,1.102-2.772,2.299-2.772
	c1.186,0,1.784,0.727,1.784,1.781c0,0.274-0.053,0.643-0.126,0.906H39.154z M40.991,4.563c0.021-0.094,0.052-0.274,0.052-0.453
	c0-0.58-0.21-1.075-0.819-1.075c-0.62,0-0.987,0.495-1.06,1.528H40.991z"/>
<path d="M47.625,7.061l0.766,0.106c0,0,0.011,0.042,0.011,0.084c0,0.189-0.137,0.316-0.389,0.337l-1.386,0.126V7.03h-0.031
	c-0.231,0.326-0.672,0.748-1.491,0.748c-1.029,0-1.995-0.664-1.995-2.498c0-1.96,1.365-2.845,2.708-2.845
	c0.305,0,0.567,0.053,0.745,0.095V0.685L45.819,0.58c0,0-0.01-0.074-0.01-0.116c0-0.179,0.137-0.306,0.388-0.327L47.625,0V7.061z
	 M46.564,3.383c-0.157-0.148-0.441-0.316-0.882-0.316c-0.85,0-1.48,0.611-1.48,2.002c0,1.359,0.588,1.907,1.292,1.907
	c0.609,0,0.934-0.284,1.071-0.442V3.383z"/>
<path d="M52.757,3.151h0.032c0.262-0.316,0.735-0.717,1.522-0.717c0.987,0,1.932,0.664,1.932,2.477c0,2.034-1.344,2.866-2.772,2.866
	c-0.944,0-1.511-0.242-1.784-0.4V0.685L50.951,0.58c0,0-0.011-0.074-0.011-0.116c0-0.179,0.137-0.306,0.389-0.327L52.757,0V3.151z
	 M52.757,6.851c0.189,0.137,0.483,0.284,0.914,0.284c0.913,0,1.48-0.611,1.48-2.034c0-1.401-0.682-1.844-1.354-1.844
	c-0.483,0-0.819,0.19-1.039,0.432V6.851z"/>
<path d="M61.648,3.098l-1.722,4.595c-0.609,1.623-1.333,2.192-2.226,2.192c-0.493,0-0.704-0.232-0.704-0.59
	c0-0.2,0.074-0.348,0.147-0.442c0.126,0.052,0.304,0.094,0.504,0.094c0.63,0,1.218-0.295,1.564-1.128l-1.994-4.743l-0.504-0.158
	c0,0-0.011-0.073-0.011-0.105c0-0.168,0.137-0.253,0.294-0.253h1.963c0.084,0,0.126,0.043,0.126,0.106s-0.053,0.21-0.074,0.253
	l-0.588,0.158l1.238,3.436h0.032l1.197-3.425l-0.787-0.169c0,0-0.01-0.073-0.01-0.105c0-0.168,0.136-0.253,0.294-0.253h1.701
	c0.084,0,0.126,0.043,0.126,0.106s-0.052,0.21-0.073,0.253L61.648,3.098z"/>
<path d="M63.536,3.731c-0.368,0-0.651-0.253-0.651-0.643c0-0.4,0.283-0.653,0.651-0.653c0.367,0,0.661,0.253,0.661,0.653
	C64.197,3.478,63.904,3.731,63.536,3.731z M63.536,7.789c-0.368,0-0.651-0.253-0.651-0.643c0-0.4,0.283-0.653,0.651-0.653
	c0.367,0,0.661,0.253,0.661,0.653C64.197,7.535,63.904,7.789,63.536,7.789z"/>
<path d="M5.416,117.133c0,1.834-1.277,2.735-2.565,2.735c-1.32,0-2.407-0.848-2.407-2.627c0-1.791,1.266-2.745,2.607-2.745
	C4.37,114.495,5.416,115.289,5.416,117.133z M1.573,117.176c0,1.42,0.57,2.055,1.351,2.055c0.781,0,1.361-0.614,1.361-2.035
	s-0.58-2.077-1.361-2.077C2.143,115.12,1.573,115.745,1.573,117.176z"/>
<path d="M11.336,119.169l0.623,0.137c0.105,0.021,0.148,0.053,0.148,0.137c0,0.106-0.084,0.265-0.105,0.297H9.605
	c0,0-0.01-0.064-0.01-0.096c0-0.19,0.126-0.286,0.327-0.349l0.349-0.127v-2.681c0-0.901-0.507-1.177-1.024-1.177
	c-0.602,0-0.992,0.286-1.214,0.466v3.392l0.602,0.137c0.106,0.021,0.148,0.053,0.148,0.137c0,0.106-0.084,0.265-0.105,0.297H6.28
	c0,0-0.011-0.064-0.011-0.096c0-0.19,0.127-0.275,0.327-0.349l0.37-0.127v-3.921l-0.75-0.117c0,0-0.011-0.064-0.011-0.106
	c0-0.18,0.137-0.308,0.391-0.328l1.436-0.138L7.969,115.3h0.032c0.285-0.308,0.76-0.805,1.731-0.805
	c1.034,0,1.604,0.667,1.604,1.865V119.169z"/>
<path d="M18.07,115.204h-1.446v3.095c0,0.477,0.148,0.869,0.676,0.869c0.412,0,0.75-0.181,0.834-0.254
	c0.053,0.085,0.095,0.243,0.095,0.349s-0.369,0.604-1.33,0.604c-0.96,0-1.34-0.562-1.34-1.378v-3.285h-0.792
	c0,0-0.011-0.064-0.011-0.095c0-0.201,0.127-0.318,0.327-0.36l0.517-0.128l0.243-1.43h0.781v1.43h1.562L18.07,115.204z"/>
<path d="M20.423,115.257h0.021c0.211-0.254,0.718-0.762,1.626-0.762c1.056,0,1.658,0.625,1.658,1.865v2.809l0.612,0.137
	c0.106,0.021,0.148,0.053,0.148,0.137c0,0.106-0.084,0.265-0.105,0.297h-2.396c0,0-0.01-0.064-0.01-0.096
	c0-0.19,0.126-0.286,0.327-0.349l0.349-0.127v-2.681c0-0.901-0.486-1.177-1.024-1.177c-0.655,0-1.003,0.286-1.204,0.487v3.371
	l0.591,0.137c0.105,0.021,0.148,0.053,0.148,0.137c0,0.106-0.074,0.265-0.106,0.297H18.66c0,0-0.011-0.064-0.011-0.096
	c0-0.19,0.127-0.286,0.327-0.349l0.369-0.127v-6.433l-0.749-0.106c0,0-0.011-0.074-0.011-0.117c0-0.18,0.137-0.308,0.391-0.328
	l1.446-0.138V115.257z"/>
<path d="M26.249,117.197c0.01,1.314,0.633,1.928,1.541,1.928c0.676,0,1.056-0.264,1.32-0.487c0.105,0.085,0.158,0.265,0.158,0.361
	c0,0.264-0.697,0.868-1.868,0.868c-1.298,0-2.269-0.742-2.269-2.586s1.108-2.786,2.312-2.786c1.193,0,1.794,0.731,1.794,1.791
	c0,0.275-0.053,0.645-0.126,0.911H26.249z M28.097,116.635c0.021-0.095,0.052-0.276,0.052-0.455c0-0.583-0.211-1.081-0.823-1.081
	c-0.623,0-0.992,0.498-1.066,1.536H28.097z"/>
<path d="M33.901,115.216h0.032c0.264-0.318,0.739-0.721,1.531-0.721c0.992,0,1.942,0.667,1.942,2.49
	c0,2.045-1.351,2.882-2.787,2.882c-0.95,0-1.52-0.244-1.794-0.403v-6.729l-0.739-0.106c0,0-0.011-0.074-0.011-0.117
	c0-0.18,0.137-0.308,0.391-0.328l1.436-0.138V115.216z M33.901,118.935c0.19,0.137,0.486,0.286,0.919,0.286
	c0.918,0,1.488-0.615,1.488-2.045c0-1.409-0.686-1.855-1.361-1.855c-0.486,0-0.824,0.191-1.045,0.435V118.935z"/>
<path d="M42.06,118.606c0,0.424,0.158,0.551,0.338,0.551c0.243,0,0.37-0.127,0.401-0.18c0.053,0.074,0.127,0.223,0.127,0.318
	c0,0.138-0.275,0.55-0.961,0.55c-0.485,0-0.791-0.211-0.886-0.741h-0.021c-0.116,0.201-0.507,0.763-1.383,0.763
	c-0.802,0-1.372-0.55-1.372-1.388c0-1.135,1.235-1.558,2.418-1.558h0.275v-0.478c0-0.964-0.253-1.345-0.908-1.345
	c-0.243,0-0.454,0.073-0.538,0.105c-0.095,0.201-0.179,0.572-0.232,0.933c0,0-0.158,0.01-0.243,0.01
	c-0.359,0-0.559-0.17-0.559-0.498c0-0.658,0.865-1.155,1.847-1.155c1.161,0,1.699,0.636,1.699,1.833V118.606z M40.751,117.451
	c-0.855,0.043-1.34,0.35-1.34,0.912c0,0.444,0.253,0.741,0.686,0.741c0.433,0,0.76-0.286,0.898-0.455v-1.208L40.751,117.451z"/>
<path d="M45.902,115.279c-0.116-0.085-0.38-0.212-0.697-0.212c-0.349,0-0.707,0.149-0.707,0.593c0,0.467,0.496,0.743,1.003,1.039
	c0.633,0.381,1.309,0.795,1.309,1.643c0,0.868-0.718,1.526-1.879,1.526c-0.591,0-1.119-0.18-1.34-0.318
	c-0.043-0.264-0.074-0.541-0.074-0.816c0-0.424,0.116-0.594,0.433-0.594c0.052,0,0.137,0.01,0.137,0.01l0.222,0.901
	c0.105,0.073,0.411,0.212,0.718,0.212c0.517,0,0.844-0.201,0.844-0.646c0-0.455-0.506-0.71-0.982-1.007
	c-0.644-0.414-1.288-0.827-1.288-1.738c0-0.826,0.718-1.377,1.731-1.377c0.612,0,1.045,0.212,1.235,0.391
	c0.021,0.149,0.043,0.371,0.043,0.583c0,0.371-0.074,0.615-0.454,0.615c-0.053,0-0.127-0.011-0.127-0.011L45.902,115.279z"/>
<path d="M49.416,119.169l0.623,0.137c0.105,0.021,0.148,0.053,0.148,0.137c0,0.106-0.084,0.265-0.105,0.297h-2.418
	c0,0-0.011-0.064-0.011-0.096c0-0.19,0.127-0.275,0.327-0.349l0.37-0.127v-3.921l-0.75-0.117c0,0-0.011-0.064-0.011-0.106
	c0-0.18,0.137-0.308,0.391-0.328l1.436-0.138V119.169z M48.878,113.509c-0.391,0-0.686-0.265-0.686-0.678
	c0-0.404,0.295-0.678,0.686-0.678c0.38,0,0.697,0.275,0.697,0.678C49.575,113.244,49.258,113.509,48.878,113.509z"/>
<path d="M53.332,115.279c-0.116-0.085-0.38-0.212-0.697-0.212c-0.349,0-0.707,0.149-0.707,0.593c0,0.467,0.496,0.743,1.003,1.039
	c0.633,0.381,1.309,0.795,1.309,1.643c0,0.868-0.718,1.526-1.879,1.526c-0.591,0-1.119-0.18-1.34-0.318
	c-0.043-0.264-0.074-0.541-0.074-0.816c0-0.424,0.116-0.594,0.433-0.594c0.052,0,0.137,0.01,0.137,0.01l0.222,0.901
	c0.105,0.073,0.411,0.212,0.718,0.212c0.517,0,0.844-0.201,0.844-0.646c0-0.455-0.506-0.71-0.982-1.007
	c-0.644-0.414-1.288-0.827-1.288-1.738c0-0.826,0.718-1.377,1.731-1.377c0.612,0,1.045,0.212,1.235,0.391
	c0.021,0.149,0.042,0.371,0.042,0.583c0,0.371-0.074,0.615-0.454,0.615c-0.053,0-0.127-0.011-0.127-0.011L53.332,115.279z"/>
<path d="M62.441,117.133c0,1.834-1.277,2.735-2.565,2.735c-1.32,0-2.407-0.848-2.407-2.627c0-1.791,1.266-2.745,2.607-2.745
	C61.397,114.495,62.441,115.289,62.441,117.133z M58.599,117.176c0,1.42,0.57,2.055,1.351,2.055c0.781,0,1.362-0.614,1.362-2.035
	s-0.581-2.077-1.362-2.077C59.169,115.12,58.599,115.745,58.599,117.176z"/>
<path d="M66.368,115.204h-1.288v3.964l0.718,0.137c0.106,0.021,0.148,0.053,0.148,0.137c0,0.106-0.074,0.265-0.106,0.297h-2.512
	c0,0-0.01-0.064-0.01-0.096c0-0.19,0.126-0.275,0.327-0.349l0.359-0.127v-3.964h-0.781c0,0-0.011-0.064-0.011-0.095
	c0-0.201,0.127-0.308,0.328-0.36l0.464-0.128v-0.105c0-1.706,1.034-2.532,1.942-2.532c0.528,0,0.739,0.233,0.739,0.561
	c0,0.265-0.158,0.414-0.317,0.499c-0.096-0.105-0.37-0.307-0.697-0.307c-0.454,0-0.612,0.254-0.612,0.879
	c0,0.329,0.021,1.007,0.021,1.007h1.405L66.368,115.204z"/>
<path d="M73.101,118.606c0,0.424,0.158,0.551,0.338,0.551c0.243,0,0.369-0.127,0.401-0.18c0.052,0.074,0.126,0.223,0.126,0.318
	c0,0.138-0.275,0.55-0.96,0.55c-0.485,0-0.792-0.211-0.886-0.741h-0.022c-0.116,0.201-0.507,0.763-1.383,0.763
	c-0.802,0-1.372-0.55-1.372-1.388c0-1.135,1.235-1.558,2.418-1.558h0.275v-0.478c0-0.964-0.254-1.345-0.908-1.345
	c-0.243,0-0.454,0.073-0.539,0.105c-0.095,0.201-0.179,0.572-0.232,0.933c0,0-0.158,0.01-0.243,0.01
	c-0.359,0-0.559-0.17-0.559-0.498c0-0.658,0.866-1.155,1.848-1.155c1.161,0,1.699,0.636,1.699,1.833V118.606z M71.792,117.451
	c-0.855,0.043-1.34,0.35-1.34,0.912c0,0.444,0.253,0.741,0.686,0.741c0.433,0,0.76-0.286,0.898-0.455v-1.208L71.792,117.451z"/>
<path d="M81.366,119.147l0.77,0.106c0,0,0.011,0.042,0.011,0.085c0,0.19-0.138,0.318-0.391,0.339l-1.393,0.128v-0.689h-0.032
	c-0.232,0.327-0.676,0.752-1.499,0.752c-1.034,0-2.005-0.667-2.005-2.512c0-1.971,1.372-2.861,2.723-2.861
	c0.306,0,0.57,0.053,0.75,0.095v-1.854l-0.75-0.106c0,0-0.01-0.074-0.01-0.117c0-0.18,0.137-0.308,0.391-0.328l1.436-0.138V119.147z
	 M80.299,115.449c-0.158-0.149-0.443-0.318-0.886-0.318c-0.855,0-1.489,0.614-1.489,2.013c0,1.367,0.591,1.918,1.299,1.918
	c0.612,0,0.94-0.286,1.077-0.445V115.449z"/>
<path d="M83.971,117.197c0.01,1.314,0.633,1.928,1.541,1.928c0.676,0,1.055-0.264,1.319-0.487c0.105,0.085,0.158,0.265,0.158,0.361
	c0,0.264-0.697,0.868-1.868,0.868c-1.299,0-2.269-0.742-2.269-2.586s1.109-2.786,2.312-2.786c1.193,0,1.794,0.731,1.794,1.791
	c0,0.275-0.052,0.645-0.126,0.911H83.971z M85.818,116.635c0.022-0.095,0.053-0.276,0.053-0.455c0-0.583-0.212-1.081-0.824-1.081
	c-0.623,0-0.992,0.498-1.066,1.536H85.818z"/>
<path d="M90.389,115.131c-0.707,0-1.319,0.508-1.319,1.896c0,1.336,0.517,2.109,1.51,2.109c0.654,0,1.034-0.339,1.203-0.509
	c0.095,0.095,0.169,0.265,0.169,0.36c0,0.265-0.58,0.88-1.742,0.88c-1.372,0-2.258-0.868-2.258-2.618
	c0-1.791,1.193-2.754,2.618-2.754c1.161,0,1.456,0.572,1.456,0.879c0,0.286-0.137,0.551-0.538,0.636
	C91.329,115.639,91.086,115.131,90.389,115.131z"/>
<path d="M94.505,119.169l0.622,0.137c0.106,0.021,0.148,0.053,0.148,0.137c0,0.106-0.084,0.265-0.106,0.297h-2.418
	c0,0-0.01-0.064-0.01-0.096c0-0.19,0.127-0.275,0.327-0.349l0.37-0.127v-3.921l-0.75-0.117c0,0-0.01-0.064-0.01-0.106
	c0-0.18,0.137-0.308,0.39-0.328l1.436-0.138V119.169z M93.967,113.509c-0.391,0-0.686-0.265-0.686-0.678
	c0-0.404,0.295-0.678,0.686-0.678c0.38,0,0.697,0.275,0.697,0.678C94.664,113.244,94.347,113.509,93.967,113.509z"/>
<path d="M98.42,115.279c-0.115-0.085-0.379-0.212-0.696-0.212c-0.349,0-0.707,0.149-0.707,0.593c0,0.467,0.497,0.743,1.003,1.039
	c0.633,0.381,1.309,0.795,1.309,1.643c0,0.868-0.718,1.526-1.879,1.526c-0.591,0-1.119-0.18-1.341-0.318
	c-0.042-0.264-0.074-0.541-0.074-0.816c0-0.424,0.116-0.594,0.433-0.594c0.053,0,0.138,0.01,0.138,0.01l0.221,0.901
	c0.106,0.073,0.412,0.212,0.718,0.212c0.517,0,0.845-0.201,0.845-0.646c0-0.455-0.507-0.71-0.982-1.007
	c-0.644-0.414-1.287-0.827-1.287-1.738c0-0.826,0.718-1.377,1.731-1.377c0.613,0,1.045,0.212,1.235,0.391
	c0.022,0.149,0.042,0.371,0.042,0.583c0,0.371-0.074,0.615-0.454,0.615c-0.052,0-0.126-0.011-0.126-0.011L98.42,115.279z"/>
<path d="M101.936,119.169l0.622,0.137c0.106,0.021,0.148,0.053,0.148,0.137c0,0.106-0.084,0.265-0.106,0.297h-2.418
	c0,0-0.01-0.064-0.01-0.096c0-0.19,0.127-0.275,0.327-0.349l0.37-0.127v-3.921l-0.75-0.117c0,0-0.01-0.064-0.01-0.106
	c0-0.18,0.137-0.308,0.39-0.328l1.436-0.138V119.169z M101.397,113.509c-0.391,0-0.686-0.265-0.686-0.678
	c0-0.404,0.295-0.678,0.686-0.678c0.38,0,0.697,0.275,0.697,0.678C102.094,113.244,101.778,113.509,101.397,113.509z"/>
<path d="M108.353,117.133c0,1.834-1.277,2.735-2.565,2.735c-1.319,0-2.407-0.848-2.407-2.627c0-1.791,1.267-2.745,2.608-2.745
	C107.308,114.495,108.353,115.289,108.353,117.133z M104.511,117.176c0,1.42,0.57,2.055,1.351,2.055
	c0.781,0,1.362-0.614,1.362-2.035s-0.581-2.077-1.362-2.077C105.081,115.12,104.511,115.745,104.511,117.176z"/>
<path d="M114.274,119.169l0.622,0.137c0.106,0.021,0.148,0.053,0.148,0.137c0,0.106-0.084,0.265-0.106,0.297h-2.396
	c0,0-0.01-0.064-0.01-0.096c0-0.19,0.126-0.286,0.327-0.349l0.349-0.127v-2.681c0-0.901-0.507-1.177-1.024-1.177
	c-0.602,0-0.992,0.286-1.213,0.466v3.392l0.602,0.137c0.105,0.021,0.147,0.053,0.147,0.137c0,0.106-0.084,0.265-0.105,0.297h-2.396
	c0,0-0.011-0.064-0.011-0.096c0-0.19,0.126-0.275,0.327-0.349l0.37-0.127v-3.921l-0.75-0.117c0,0-0.01-0.064-0.01-0.106
	c0-0.18,0.137-0.308,0.39-0.328l1.436-0.138l-0.064,0.742h0.032c0.285-0.308,0.76-0.805,1.731-0.805
	c1.034,0,1.605,0.667,1.605,1.865V119.169z"/>
<path d="M1.826,127.229h0.032c0.264-0.318,0.739-0.721,1.531-0.721c0.992,0,1.942,0.667,1.942,2.49c0,2.045-1.351,2.882-2.787,2.882
	c-0.95,0-1.52-0.244-1.794-0.403v-6.729l-0.739-0.106c0,0-0.011-0.074-0.011-0.117c0-0.18,0.137-0.308,0.391-0.328l1.436-0.138
	V127.229z M1.826,130.948c0.19,0.137,0.486,0.286,0.919,0.286c0.918,0,1.488-0.615,1.488-2.045c0-1.409-0.686-1.855-1.361-1.855
	c-0.486,0-0.824,0.191-1.045,0.435V130.948z"/>
<path d="M10.767,127.175l-1.731,4.621C8.423,133.428,7.695,134,6.798,134c-0.496,0-0.707-0.233-0.707-0.593
	c0-0.201,0.074-0.35,0.148-0.446c0.126,0.053,0.306,0.096,0.506,0.096c0.633,0,1.225-0.297,1.573-1.135l-2.006-4.769l-0.506-0.158
	c0,0-0.011-0.074-0.011-0.106c0-0.169,0.137-0.255,0.296-0.255h1.974c0.084,0,0.126,0.043,0.126,0.107
	c0,0.063-0.053,0.211-0.074,0.254l-0.591,0.158l1.245,3.456h0.032l1.203-3.445l-0.791-0.169c0,0-0.011-0.074-0.011-0.106
	c0-0.169,0.137-0.255,0.296-0.255h1.71c0.084,0,0.126,0.043,0.126,0.107c0,0.063-0.052,0.211-0.074,0.254L10.767,127.175z"/>
<path d="M16.909,127.217h-1.446v3.095c0,0.477,0.148,0.869,0.676,0.869c0.412,0,0.75-0.181,0.834-0.254
	c0.053,0.085,0.095,0.243,0.095,0.349c0,0.106-0.369,0.604-1.33,0.604c-0.96,0-1.34-0.562-1.34-1.378v-3.285h-0.792
	c0,0-0.011-0.064-0.011-0.095c0-0.201,0.127-0.318,0.327-0.36l0.517-0.128l0.243-1.43h0.781v1.43h1.562L16.909,127.217z"/>
<path d="M19.262,127.27h0.021c0.211-0.254,0.718-0.762,1.626-0.762c1.056,0,1.658,0.625,1.658,1.865v2.809l0.612,0.137
	c0.105,0.021,0.148,0.053,0.148,0.137c0,0.106-0.084,0.265-0.105,0.297h-2.396c0,0-0.011-0.064-0.011-0.096
	c0-0.19,0.127-0.286,0.327-0.349l0.348-0.127v-2.681c0-0.901-0.485-1.177-1.024-1.177c-0.655,0-1.003,0.286-1.204,0.487v3.371
	l0.591,0.137c0.105,0.021,0.148,0.053,0.148,0.137c0,0.106-0.074,0.265-0.106,0.297H17.5c0,0-0.011-0.064-0.011-0.096
	c0-0.19,0.127-0.286,0.327-0.349l0.369-0.127v-6.433l-0.75-0.106c0,0-0.01-0.074-0.01-0.117c0-0.18,0.137-0.308,0.391-0.328
	l1.446-0.138V127.27z"/>
<path d="M25.089,129.21c0.01,1.314,0.633,1.928,1.541,1.928c0.676,0,1.056-0.264,1.32-0.487c0.105,0.085,0.158,0.265,0.158,0.361
	c0,0.264-0.697,0.868-1.869,0.868c-1.298,0-2.269-0.742-2.269-2.586c0-1.844,1.108-2.786,2.312-2.786
	c1.193,0,1.794,0.731,1.794,1.791c0,0.275-0.053,0.645-0.126,0.911H25.089z M26.936,128.648c0.021-0.095,0.052-0.276,0.052-0.455
	c0-0.583-0.211-1.081-0.823-1.081c-0.623,0-0.992,0.498-1.066,1.536H26.936z"/>
<path d="M36.488,125.31c-0.222-0.148-0.707-0.327-1.288-0.327c-1.288,0-2.544,0.847-2.544,3.04c0,2.12,0.982,3.169,2.375,3.169
	c0.506,0,0.908-0.095,1.214-0.212v-2.109l-0.644-0.149c-0.105-0.021-0.148-0.053-0.148-0.117c0-0.096,0.074-0.222,0.116-0.318h2.407
	c0,0,0.01,0.064,0.01,0.117c0,0.169-0.095,0.297-0.359,0.371l-0.243,0.064v2.214c-0.285,0.255-1.066,0.827-2.618,0.827
	c-1.858,0-3.314-1.155-3.314-3.73c0-2.756,2.037-3.836,3.789-3.836c1.119,0,1.679,0.318,2.027,0.476
	c0.032,0.318,0.063,0.976,0.063,1.06c0,0.328-0.095,0.541-0.369,0.541c-0.084,0-0.169-0.022-0.243-0.043L36.488,125.31z"/>
<path d="M39.886,129.21c0.01,1.314,0.633,1.928,1.541,1.928c0.676,0,1.056-0.264,1.32-0.487c0.105,0.085,0.158,0.265,0.158,0.361
	c0,0.264-0.697,0.868-1.869,0.868c-1.298,0-2.269-0.742-2.269-2.586c0-1.844,1.109-2.786,2.312-2.786
	c1.193,0,1.794,0.731,1.794,1.791c0,0.275-0.053,0.645-0.126,0.911H39.886z M41.734,128.648c0.021-0.095,0.052-0.276,0.052-0.455
	c0-0.583-0.211-1.081-0.823-1.081c-0.623,0-0.992,0.498-1.066,1.536H41.734z"/>
<path d="M45.47,127.483h0.032c0.222-0.36,0.612-0.975,1.298-0.975c0.496,0,0.729,0.233,0.729,0.561c0,0.233-0.106,0.435-0.19,0.541
	c-0.084-0.042-0.348-0.159-0.707-0.159c-0.58,0-0.876,0.233-1.098,0.54v3.191l0.76,0.137c0.106,0.021,0.148,0.053,0.148,0.137
	c0,0.106-0.084,0.265-0.105,0.297h-2.555c0,0-0.011-0.064-0.011-0.096c0-0.19,0.127-0.275,0.327-0.349l0.37-0.127v-3.921
	l-0.75-0.117c0,0-0.011-0.064-0.011-0.106c0-0.18,0.137-0.308,0.391-0.328l1.436-0.138L45.47,127.483z"/>
<path d="M56.246,131.182l0.602,0.137c0.106,0.021,0.148,0.053,0.148,0.137c0,0.106-0.074,0.265-0.105,0.297h-2.386
	c0,0-0.011-0.064-0.011-0.096c0-0.19,0.126-0.286,0.327-0.349l0.349-0.127v-2.681c0-0.922-0.454-1.177-0.95-1.177
	c-0.644,0-1.003,0.276-1.246,0.498c0.032,0.169,0.053,0.35,0.053,0.551v2.809l0.612,0.137c0.105,0.021,0.148,0.053,0.148,0.137
	c0,0.106-0.074,0.265-0.105,0.297h-2.396c0,0-0.011-0.064-0.011-0.096c0-0.19,0.126-0.286,0.327-0.349l0.349-0.127v-2.681
	c0-0.922-0.443-1.177-0.939-1.177c-0.591,0-0.94,0.244-1.183,0.445v3.413l0.602,0.137c0.106,0.021,0.148,0.053,0.148,0.137
	c0,0.106-0.084,0.265-0.105,0.297h-2.396c0,0-0.011-0.064-0.011-0.096c0-0.19,0.127-0.275,0.327-0.349l0.37-0.127v-3.921
	l-0.75-0.117c0,0-0.011-0.064-0.011-0.106c0-0.18,0.137-0.308,0.391-0.328l1.436-0.138l-0.063,0.69h0.032
	c0.222-0.245,0.739-0.753,1.668-0.753c0.644,0,1.119,0.296,1.361,0.858c0.285-0.318,0.845-0.858,1.794-0.858
	c1.013,0,1.626,0.645,1.626,1.865V131.182z"/>
<path d="M61.344,130.619c0,0.424,0.158,0.551,0.337,0.551c0.243,0,0.37-0.127,0.401-0.18c0.053,0.074,0.127,0.223,0.127,0.318
	c0,0.138-0.275,0.55-0.961,0.55c-0.485,0-0.791-0.211-0.886-0.741h-0.021c-0.117,0.201-0.507,0.763-1.384,0.763
	c-0.802,0-1.372-0.55-1.372-1.388c0-1.135,1.235-1.558,2.418-1.558h0.275v-0.478c0-0.964-0.253-1.345-0.908-1.345
	c-0.243,0-0.454,0.073-0.538,0.105c-0.095,0.201-0.179,0.572-0.232,0.933c0,0-0.158,0.01-0.243,0.01
	c-0.359,0-0.559-0.17-0.559-0.498c0-0.658,0.865-1.155,1.847-1.155c1.161,0,1.7,0.636,1.7,1.833V130.619z M60.035,129.464
	c-0.855,0.043-1.34,0.35-1.34,0.912c0,0.444,0.253,0.741,0.686,0.741c0.433,0,0.76-0.286,0.898-0.455v-1.208L60.035,129.464z"/>
<path d="M67.74,131.182l0.623,0.137c0.105,0.021,0.147,0.053,0.147,0.137c0,0.106-0.084,0.265-0.105,0.297h-2.397
	c0,0-0.01-0.064-0.01-0.096c0-0.19,0.127-0.286,0.327-0.349l0.349-0.127v-2.681c0-0.901-0.507-1.177-1.024-1.177
	c-0.602,0-0.992,0.286-1.213,0.466v3.392l0.602,0.137c0.106,0.021,0.148,0.053,0.148,0.137c0,0.106-0.084,0.265-0.106,0.297h-2.396
	c0,0-0.011-0.064-0.011-0.096c0-0.19,0.127-0.275,0.328-0.349l0.369-0.127v-3.921l-0.75-0.117c0,0-0.01-0.064-0.01-0.106
	c0-0.18,0.137-0.308,0.391-0.328l1.436-0.138l-0.064,0.742h0.032c0.285-0.308,0.76-0.805,1.732-0.805
	c1.034,0,1.604,0.667,1.604,1.865V131.182z"/>
<path d="M75.339,127.97v0.021c1.024,0.17,1.7,0.753,1.7,1.718c0,1.187-0.971,2.045-2.871,2.045h-2.681c0,0-0.011-0.064-0.011-0.117
	c0-0.169,0.085-0.318,0.359-0.382l0.444-0.105v-6.126l-0.645-0.149c-0.105-0.021-0.147-0.053-0.147-0.117
	c0-0.094,0.074-0.222,0.116-0.318h2.48c1.879,0,2.776,0.668,2.776,1.845C76.859,127.292,76.247,127.769,75.339,127.97z
	 M73.988,125.088h-0.571v2.671h0.559c1.204,0,1.71-0.594,1.71-1.346C75.687,125.543,75.149,125.088,73.988,125.088z M74.115,128.373
	h-0.697v2.735h0.633c1.235,0,1.784-0.583,1.784-1.41C75.835,128.914,75.254,128.373,74.115,128.373z"/>
<path d="M82.811,131.16l0.77,0.106c0,0,0.011,0.042,0.011,0.085c0,0.19-0.138,0.318-0.391,0.339l-1.393,0.128v-0.7h-0.022
	c-0.169,0.222-0.633,0.763-1.562,0.763c-1.129,0-1.658-0.667-1.658-1.918v-2.702l-0.75-0.117c0,0-0.01-0.064-0.01-0.106
	c0-0.18,0.138-0.308,0.391-0.328l1.436-0.138v3.339c0,0.964,0.507,1.187,0.972,1.187c0.538,0,0.897-0.233,1.139-0.509v-3.327
	l-0.75-0.117c0,0-0.01-0.064-0.01-0.106c0-0.18,0.138-0.308,0.391-0.328l1.436-0.138V131.16z"/>
<path d="M89.271,131.182l0.622,0.137c0.106,0.021,0.148,0.053,0.148,0.137c0,0.106-0.084,0.265-0.106,0.297H87.54
	c0,0-0.01-0.064-0.01-0.096c0-0.19,0.127-0.286,0.327-0.349l0.349-0.127v-2.681c0-0.901-0.507-1.177-1.024-1.177
	c-0.602,0-0.992,0.286-1.213,0.466v3.392l0.602,0.137c0.105,0.021,0.147,0.053,0.147,0.137c0,0.106-0.084,0.265-0.105,0.297h-2.397
	c0,0-0.01-0.064-0.01-0.096c0-0.19,0.127-0.275,0.327-0.349l0.37-0.127v-3.921l-0.75-0.117c0,0-0.01-0.064-0.01-0.106
	c0-0.18,0.137-0.308,0.39-0.328l1.436-0.138l-0.064,0.742h0.032c0.285-0.308,0.76-0.805,1.731-0.805
	c1.034,0,1.605,0.667,1.605,1.865V131.182z"/>
<path d="M95.224,131.16l0.77,0.106c0,0,0.011,0.042,0.011,0.085c0,0.19-0.138,0.318-0.391,0.339l-1.393,0.128v-0.689H94.19
	c-0.232,0.327-0.676,0.752-1.499,0.752c-1.034,0-2.005-0.667-2.005-2.512c0-1.971,1.372-2.861,2.723-2.861
	c0.306,0,0.57,0.053,0.75,0.095v-1.854l-0.75-0.106c0,0-0.01-0.074-0.01-0.117c0-0.18,0.137-0.308,0.391-0.328l1.436-0.138V131.16z
	 M94.158,127.462c-0.158-0.149-0.443-0.318-0.886-0.318c-0.855,0-1.489,0.614-1.489,2.013c0,1.367,0.591,1.918,1.299,1.918
	c0.612,0,0.94-0.286,1.077-0.445V127.462z"/>
<path d="M97.83,129.21c0.01,1.314,0.633,1.928,1.541,1.928c0.676,0,1.055-0.264,1.319-0.487c0.105,0.085,0.158,0.265,0.158,0.361
	c0,0.264-0.697,0.868-1.868,0.868c-1.299,0-2.269-0.742-2.269-2.586c0-1.844,1.108-2.786,2.312-2.786
	c1.193,0,1.794,0.731,1.794,1.791c0,0.275-0.052,0.645-0.126,0.911H97.83z M99.677,128.648c0.022-0.095,0.053-0.276,0.053-0.455
	c0-0.583-0.212-1.081-0.824-1.081c-0.623,0-0.992,0.498-1.066,1.536H99.677z"/>
<path d="M104.226,127.292c-0.115-0.085-0.379-0.212-0.696-0.212c-0.349,0-0.707,0.149-0.707,0.593c0,0.467,0.497,0.743,1.003,1.039
	c0.633,0.381,1.309,0.795,1.309,1.642c0,0.868-0.718,1.526-1.879,1.526c-0.591,0-1.119-0.18-1.341-0.318
	c-0.042-0.264-0.074-0.541-0.074-0.816c0-0.424,0.116-0.594,0.433-0.594c0.053,0,0.138,0.01,0.138,0.01l0.221,0.901
	c0.106,0.073,0.412,0.212,0.718,0.212c0.517,0,0.845-0.201,0.845-0.646c0-0.455-0.507-0.71-0.982-1.007
	c-0.644-0.414-1.287-0.827-1.287-1.738c0-0.826,0.718-1.377,1.731-1.377c0.613,0,1.045,0.212,1.235,0.391
	c0.022,0.149,0.042,0.371,0.042,0.583c0,0.371-0.074,0.615-0.454,0.615c-0.052,0-0.126-0.011-0.126-0.011L104.226,127.292z"/>
<path d="M109.092,127.217h-1.447v3.095c0,0.477,0.148,0.869,0.676,0.869c0.412,0,0.75-0.181,0.834-0.254
	c0.053,0.085,0.096,0.243,0.096,0.349c0,0.106-0.37,0.604-1.331,0.604s-1.341-0.562-1.341-1.378v-3.285h-0.792
	c0,0-0.01-0.064-0.01-0.095c0-0.201,0.126-0.318,0.327-0.36l0.517-0.128l0.244-1.43h0.781v1.43h1.563L109.092,127.217z"/>
<path d="M113.567,130.619c0,0.424,0.158,0.551,0.337,0.551c0.243,0,0.369-0.127,0.401-0.18c0.053,0.074,0.126,0.223,0.126,0.318
	c0,0.138-0.275,0.55-0.96,0.55c-0.485,0-0.792-0.211-0.886-0.741h-0.022c-0.116,0.201-0.506,0.763-1.382,0.763
	c-0.803,0-1.373-0.55-1.373-1.388c0-1.135,1.235-1.558,2.418-1.558h0.275v-0.478c0-0.964-0.254-1.345-0.908-1.345
	c-0.243,0-0.454,0.073-0.539,0.105c-0.095,0.201-0.179,0.572-0.231,0.933c0,0-0.158,0.01-0.244,0.01
	c-0.359,0-0.559-0.17-0.559-0.498c0-0.658,0.866-1.155,1.848-1.155c1.161,0,1.7,0.636,1.7,1.833V130.619z M112.258,129.464
	c-0.855,0.043-1.341,0.35-1.341,0.912c0,0.444,0.253,0.741,0.686,0.741c0.433,0,0.76-0.286,0.898-0.455v-1.208L112.258,129.464z"/>
<path d="M119.667,127.239h-0.855c0.201,0.264,0.327,0.582,0.327,0.964c0,1.123-0.929,1.759-2.079,1.759
	c-0.18,0-0.338-0.021-0.497-0.053c-0.148,0.085-0.295,0.233-0.295,0.476c0,0.255,0.169,0.372,0.528,0.372h1.225
	c0.971,0,1.52,0.445,1.52,1.209c0,1.059-1.034,2.034-2.819,2.034c-1.298,0-1.931-0.455-1.931-1.229c0-0.742,0.58-1.092,0.96-1.209
	v-0.022c-0.275-0.148-0.433-0.403-0.433-0.741c0-0.615,0.559-0.901,0.76-1.007v-0.021c-0.591-0.265-0.971-0.806-0.971-1.569
	c0-1.113,0.929-1.695,2.005-1.695c0.285,0,0.559,0.041,0.824,0.126h1.847L119.667,127.239z M116.628,131.711
	c-0.148,0-0.275-0.01-0.391-0.022c-0.275,0.16-0.454,0.424-0.454,0.785c0,0.551,0.337,0.901,1.108,0.901
	c1.024,0,1.658-0.478,1.658-1.039c0-0.435-0.243-0.626-0.781-0.626H116.628z M116.163,128.215c0,0.837,0.423,1.165,0.95,1.165
	c0.57,0,0.982-0.327,0.982-1.165c0-0.753-0.412-1.135-0.96-1.135C116.586,127.08,116.163,127.398,116.163,128.215z"/>
<path d="M40.314,38.337v-8.209h4.017l-0.071,0.821h-2.915v3.034h2.69v0.821h-2.69v3.534H40.314z M48.965,34.553
	c0,0.246-0.008,0.458-0.024,0.636c-0.016,0.178-0.032,0.335-0.047,0.47h-2.903c0.032,0.674,0.176,1.17,0.433,1.487
	c0.257,0.317,0.626,0.476,1.108,0.476c0.166,0,0.316-0.02,0.45-0.059s0.251-0.087,0.35-0.143c0.099-0.055,0.182-0.111,0.249-0.167
	c0.067-0.055,0.117-0.099,0.148-0.131l0.356,0.678c-0.04,0.04-0.099,0.097-0.178,0.172c-0.079,0.075-0.186,0.151-0.32,0.226
	c-0.134,0.075-0.3,0.141-0.498,0.196c-0.197,0.055-0.431,0.083-0.699,0.083c-0.356,0-0.677-0.059-0.966-0.178
	c-0.288-0.119-0.533-0.303-0.735-0.553c-0.201-0.25-0.358-0.567-0.468-0.952c-0.111-0.385-0.166-0.847-0.166-1.386
	c0-0.508,0.057-0.946,0.172-1.315c0.115-0.369,0.271-0.672,0.468-0.91c0.197-0.238,0.427-0.414,0.687-0.529
	c0.261-0.115,0.541-0.172,0.841-0.172c0.545,0,0.972,0.172,1.28,0.517S48.965,33.863,48.965,34.553z M47.164,33.268
	c-0.34,0-0.612,0.143-0.818,0.428c-0.205,0.286-0.324,0.698-0.356,1.237h2.074c0.008-0.04,0.014-0.097,0.018-0.173
	c0.004-0.075,0.006-0.157,0.006-0.244c0-0.397-0.079-0.704-0.237-0.922C47.693,33.377,47.464,33.268,47.164,33.268z M49.984,35.564
	c0-0.579,0.075-1.063,0.225-1.451c0.15-0.389,0.344-0.702,0.581-0.94c0.237-0.238,0.506-0.407,0.806-0.506
	c0.3-0.099,0.6-0.149,0.901-0.149c0.182,0,0.34,0.014,0.474,0.042c0.134,0.028,0.245,0.061,0.332,0.101v-2.736l0.96-0.107v8.519
	h-0.877V37.73h-0.024c-0.024,0.048-0.067,0.113-0.13,0.196s-0.15,0.167-0.261,0.25c-0.111,0.083-0.249,0.155-0.415,0.214
	c-0.166,0.059-0.36,0.089-0.581,0.089c-0.269,0-0.523-0.053-0.764-0.161c-0.241-0.107-0.452-0.278-0.634-0.512
	c-0.182-0.234-0.326-0.535-0.433-0.904C50.038,36.534,49.984,36.088,49.984,35.564z M52.236,37.623c0.15,0,0.284-0.02,0.403-0.059
	s0.221-0.089,0.308-0.149c0.087-0.059,0.16-0.121,0.219-0.184c0.059-0.063,0.105-0.119,0.136-0.167v-3.522
	c-0.087-0.055-0.188-0.103-0.302-0.143c-0.115-0.04-0.259-0.059-0.433-0.059c-0.221,0-0.429,0.038-0.622,0.113
	c-0.194,0.075-0.361,0.2-0.504,0.375s-0.255,0.401-0.338,0.678c-0.083,0.278-0.124,0.619-0.124,1.023
	c0,0.397,0.034,0.728,0.101,0.993c0.067,0.266,0.16,0.48,0.278,0.642c0.119,0.163,0.253,0.28,0.403,0.351
	C51.912,37.587,52.07,37.623,52.236,37.623z M59.382,34.553c0,0.246-0.008,0.458-0.024,0.636s-0.032,0.335-0.047,0.47h-2.903
	c0.032,0.674,0.176,1.17,0.433,1.487c0.257,0.317,0.626,0.476,1.108,0.476c0.166,0,0.316-0.02,0.45-0.059s0.251-0.087,0.35-0.143
	c0.099-0.055,0.182-0.111,0.249-0.167c0.067-0.055,0.117-0.099,0.148-0.131l0.356,0.678c-0.04,0.04-0.099,0.097-0.178,0.172
	c-0.079,0.075-0.186,0.151-0.32,0.226c-0.134,0.075-0.3,0.141-0.498,0.196s-0.431,0.083-0.699,0.083
	c-0.356,0-0.677-0.059-0.966-0.178c-0.288-0.119-0.533-0.303-0.735-0.553c-0.201-0.25-0.358-0.567-0.468-0.952
	c-0.111-0.385-0.166-0.847-0.166-1.386c0-0.508,0.057-0.946,0.172-1.315c0.115-0.369,0.271-0.672,0.468-0.91
	c0.197-0.238,0.427-0.414,0.687-0.529c0.261-0.115,0.541-0.172,0.841-0.172c0.545,0,0.972,0.172,1.28,0.517
	C59.228,33.346,59.382,33.863,59.382,34.553z M57.581,33.268c-0.34,0-0.612,0.143-0.818,0.428c-0.205,0.286-0.324,0.698-0.356,1.237
	h2.074c0.008-0.04,0.014-0.097,0.018-0.173c0.004-0.075,0.006-0.157,0.006-0.244c0-0.397-0.079-0.704-0.237-0.922
	C58.11,33.377,57.881,33.268,57.581,33.268z M63.163,33.471c-0.024-0.016-0.075-0.036-0.154-0.059
	c-0.079-0.024-0.186-0.036-0.32-0.036c-0.3,0-0.535,0.081-0.705,0.244c-0.17,0.163-0.29,0.339-0.361,0.529v4.188h-0.96v-5.711h0.877
	v0.773h0.024c0.04-0.111,0.091-0.22,0.154-0.327c0.063-0.107,0.142-0.202,0.237-0.286s0.207-0.149,0.338-0.196
	c0.13-0.048,0.286-0.071,0.468-0.071c0.134,0,0.243,0.012,0.326,0.036c0.083,0.024,0.148,0.044,0.195,0.059L63.163,33.471z
	 M63.72,36.885c0-0.333,0.063-0.611,0.19-0.833c0.126-0.222,0.296-0.403,0.51-0.541c0.213-0.139,0.464-0.238,0.753-0.297
	c0.288-0.059,0.594-0.089,0.918-0.089h0.296v-0.547c0-0.484-0.085-0.817-0.255-0.999c-0.17-0.182-0.409-0.274-0.717-0.274
	c-0.284,0-0.521,0.061-0.711,0.184c-0.19,0.123-0.34,0.232-0.45,0.327l-0.403-0.642c0.063-0.063,0.144-0.135,0.243-0.214
	c0.099-0.079,0.219-0.155,0.361-0.226c0.142-0.071,0.304-0.131,0.486-0.178c0.182-0.048,0.387-0.071,0.616-0.071
	c0.585,0,1.027,0.163,1.327,0.488c0.3,0.325,0.45,0.849,0.45,1.57v2.606c0,0.246,0.008,0.486,0.024,0.72
	c0.016,0.234,0.032,0.391,0.047,0.47h-0.913l-0.036-0.631h-0.024c-0.032,0.071-0.079,0.153-0.142,0.244
	c-0.063,0.091-0.142,0.175-0.237,0.25c-0.095,0.075-0.209,0.141-0.344,0.196c-0.134,0.055-0.292,0.083-0.474,0.083
	c-0.213,0-0.413-0.04-0.598-0.119c-0.186-0.079-0.348-0.19-0.486-0.333c-0.138-0.143-0.245-0.311-0.32-0.506
	C63.757,37.327,63.72,37.115,63.72,36.885z M65.438,37.658c0.134,0,0.253-0.02,0.356-0.059c0.103-0.04,0.192-0.087,0.267-0.143
	c0.075-0.055,0.138-0.117,0.19-0.184c0.051-0.067,0.097-0.125,0.136-0.172v-1.261l-0.308,0.012
	c-0.458,0.016-0.806,0.095-1.043,0.238c-0.237,0.143-0.356,0.373-0.356,0.69c0,0.293,0.067,0.514,0.201,0.66
	C65.015,37.585,65.201,37.658,65.438,37.658z M69.728,37.004c0,0.238,0.034,0.405,0.101,0.5c0.067,0.095,0.184,0.143,0.35,0.143
	c0.087,0,0.16-0.008,0.219-0.024c0.059-0.016,0.105-0.032,0.136-0.048l0.083,0.714c-0.047,0.024-0.134,0.055-0.261,0.095
	s-0.296,0.059-0.51,0.059c-0.324,0-0.585-0.099-0.782-0.297c-0.197-0.198-0.296-0.551-0.296-1.059v-7.162l0.96-0.107V37.004z
	 M81.01,30.127v8.209h-0.995v-3.902c0-0.246,0-0.488,0-0.726c0-0.238,0.002-0.46,0.006-0.666c0.004-0.206,0.01-0.389,0.018-0.547
	c0.008-0.159,0.016-0.282,0.024-0.369h-0.036c-0.04,0.182-0.12,0.478-0.243,0.886c-0.122,0.409-0.263,0.847-0.421,1.315
	l-1.351,4.009h-0.818l-1.351-4.009c-0.158-0.468-0.298-0.906-0.421-1.315c-0.122-0.408-0.203-0.704-0.243-0.886h-0.036
	c0.008,0.095,0.016,0.222,0.024,0.381c0.008,0.159,0.014,0.339,0.018,0.541c0.004,0.202,0.006,0.422,0.006,0.66
	c0,0.238,0,0.48,0,0.726v3.902h-0.995v-8.209h1.15l1.932,5.663c0.087,0.262,0.164,0.517,0.231,0.767
	c0.067,0.25,0.109,0.466,0.124,0.648h0.024c0.008-0.182,0.045-0.397,0.113-0.642c0.067-0.246,0.144-0.5,0.231-0.761l1.932-5.675
	H81.01z M83.641,38.337h-0.96v-5.711h0.96V38.337z M83.167,31.246c-0.197,0-0.356-0.063-0.474-0.19
	c-0.119-0.127-0.178-0.293-0.178-0.5c0-0.198,0.059-0.361,0.178-0.488s0.277-0.19,0.474-0.19c0.19,0,0.344,0.063,0.462,0.19
	c0.119,0.127,0.178,0.29,0.178,0.488c0,0.206-0.059,0.373-0.178,0.5C83.51,31.182,83.356,31.246,83.167,31.246z M88.215,38.337
	V34.66c0-0.484-0.081-0.831-0.243-1.041c-0.162-0.21-0.409-0.315-0.741-0.315c-0.284,0-0.521,0.071-0.711,0.214
	c-0.19,0.143-0.34,0.282-0.45,0.416v4.402h-0.96v-5.711h0.877v0.642h0.024c0.024-0.048,0.075-0.117,0.154-0.208
	c0.079-0.091,0.182-0.178,0.308-0.262s0.277-0.157,0.45-0.22c0.174-0.063,0.371-0.095,0.593-0.095c0.253,0,0.482,0.038,0.687,0.113
	c0.205,0.075,0.379,0.196,0.521,0.363c0.142,0.167,0.253,0.383,0.332,0.648c0.079,0.266,0.119,0.593,0.119,0.982v3.748H88.215z
	 M91.569,38.337h-0.96v-5.711h0.96V38.337z M91.095,31.246c-0.197,0-0.356-0.063-0.474-0.19c-0.119-0.127-0.178-0.293-0.178-0.5
	c0-0.198,0.059-0.361,0.178-0.488c0.119-0.127,0.277-0.19,0.474-0.19c0.19,0,0.344,0.063,0.462,0.19s0.178,0.29,0.178,0.488
	c0,0.206-0.059,0.373-0.178,0.5C91.439,31.182,91.285,31.246,91.095,31.246z M95.492,33.78c-0.063-0.071-0.178-0.169-0.344-0.292
	c-0.166-0.123-0.383-0.184-0.652-0.184c-0.253,0-0.446,0.059-0.581,0.178c-0.134,0.119-0.201,0.262-0.201,0.428
	c0,0.214,0.061,0.391,0.184,0.529c0.122,0.139,0.31,0.288,0.563,0.446l0.356,0.214c0.387,0.23,0.691,0.478,0.913,0.744
	c0.221,0.266,0.332,0.609,0.332,1.029c0,0.452-0.156,0.833-0.468,1.142c-0.312,0.309-0.76,0.464-1.345,0.464
	c-0.229,0-0.431-0.024-0.604-0.071c-0.174-0.048-0.326-0.103-0.456-0.167c-0.13-0.063-0.239-0.133-0.326-0.208
	c-0.087-0.075-0.158-0.145-0.213-0.208l0.462-0.761c0.047,0.048,0.105,0.103,0.172,0.167c0.067,0.063,0.148,0.125,0.243,0.184
	c0.095,0.059,0.201,0.109,0.32,0.149s0.257,0.059,0.415,0.059c0.284,0,0.502-0.063,0.652-0.19s0.225-0.282,0.225-0.464
	c0-0.135-0.018-0.252-0.053-0.351c-0.036-0.099-0.089-0.188-0.16-0.268c-0.071-0.079-0.158-0.155-0.261-0.226
	c-0.103-0.071-0.221-0.151-0.356-0.238l-0.356-0.226c-0.356-0.23-0.634-0.472-0.835-0.726c-0.201-0.254-0.302-0.579-0.302-0.976
	c0-0.214,0.042-0.411,0.124-0.589c0.083-0.178,0.199-0.333,0.35-0.464c0.15-0.131,0.326-0.234,0.527-0.309
	c0.201-0.075,0.417-0.113,0.646-0.113c0.221,0,0.411,0.022,0.569,0.065c0.158,0.044,0.294,0.099,0.409,0.167
	c0.115,0.067,0.209,0.135,0.284,0.202c0.075,0.067,0.136,0.125,0.184,0.173L95.492,33.78z M99.616,33.411h-1.244v3.165
	c0,0.405,0.051,0.68,0.154,0.827c0.103,0.147,0.277,0.22,0.521,0.22c0.142,0,0.265-0.02,0.367-0.059
	c0.103-0.04,0.178-0.075,0.225-0.107l0.13,0.773c-0.04,0.032-0.134,0.081-0.284,0.149c-0.15,0.067-0.352,0.101-0.604,0.101
	c-0.49,0-0.857-0.137-1.102-0.411c-0.245-0.274-0.367-0.728-0.367-1.362v-3.296h-0.687v-0.642l0.687-0.143l0.107-1.594h0.853v1.594
	h1.363L99.616,33.411z M103.206,33.471c-0.024-0.016-0.075-0.036-0.154-0.059c-0.079-0.024-0.186-0.036-0.32-0.036
	c-0.3,0-0.535,0.081-0.705,0.244c-0.17,0.163-0.29,0.339-0.361,0.529v4.188h-0.96v-5.711h0.877v0.773h0.024
	c0.04-0.111,0.091-0.22,0.154-0.327s0.142-0.202,0.237-0.286c0.095-0.083,0.207-0.149,0.338-0.196
	c0.13-0.048,0.286-0.071,0.468-0.071c0.134,0,0.243,0.012,0.326,0.036c0.083,0.024,0.148,0.044,0.195,0.059L103.206,33.471z
	 M107.947,32.626l-1.778,6.044c-0.205,0.698-0.456,1.225-0.753,1.582c-0.296,0.357-0.725,0.535-1.286,0.535
	c-0.119,0-0.217-0.014-0.296-0.042c-0.079-0.028-0.134-0.05-0.166-0.065v-0.833c0.04,0.016,0.091,0.034,0.154,0.054
	c0.063,0.02,0.146,0.03,0.249,0.03c0.34,0,0.599-0.107,0.776-0.321c0.178-0.214,0.33-0.543,0.456-0.987l0.083-0.297l-1.837-5.699
	h1.031l0.889,3.165c0.087,0.325,0.166,0.629,0.237,0.91c0.071,0.282,0.115,0.533,0.13,0.756h0.024
	c0.016-0.222,0.053-0.472,0.113-0.75c0.059-0.278,0.132-0.579,0.219-0.904l0.806-3.177H107.947z M42.507,45.409h-1.161v4.926h-0.96
	v-4.926h-0.687v-0.642l0.687-0.131v-1.142c0-0.309,0.043-0.575,0.13-0.797c0.087-0.222,0.201-0.405,0.344-0.547
	c0.142-0.143,0.308-0.246,0.498-0.309c0.19-0.063,0.391-0.095,0.604-0.095c0.205,0,0.379,0.028,0.521,0.083s0.237,0.099,0.284,0.131
	l-0.201,0.797c-0.047-0.032-0.115-0.065-0.201-0.101c-0.087-0.036-0.194-0.053-0.32-0.053c-0.229,0-0.403,0.071-0.521,0.214
	s-0.178,0.405-0.178,0.785v1.023h1.28L42.507,45.409z M43.087,47.479c0-0.523,0.061-0.976,0.184-1.356
	c0.122-0.381,0.288-0.692,0.498-0.934c0.209-0.242,0.45-0.42,0.723-0.535c0.273-0.115,0.563-0.172,0.871-0.172
	c0.316,0,0.608,0.057,0.877,0.172c0.269,0.115,0.502,0.294,0.699,0.535c0.197,0.242,0.354,0.553,0.468,0.934
	c0.115,0.381,0.172,0.833,0.172,1.356c0,0.531-0.059,0.987-0.178,1.368c-0.119,0.381-0.282,0.692-0.492,0.934
	c-0.209,0.242-0.452,0.418-0.729,0.529c-0.277,0.111-0.569,0.167-0.877,0.167c-0.316,0-0.608-0.055-0.877-0.167
	s-0.502-0.288-0.699-0.529c-0.197-0.242-0.354-0.551-0.468-0.928C43.145,48.476,43.087,48.018,43.087,47.479z M46.583,47.479
	c0-0.761-0.111-1.315-0.332-1.66c-0.221-0.345-0.529-0.518-0.924-0.518c-0.395,0-0.701,0.172-0.918,0.518
	c-0.217,0.345-0.326,0.898-0.326,1.66c0,0.761,0.111,1.309,0.332,1.642c0.221,0.333,0.529,0.5,0.924,0.5
	c0.395,0,0.701-0.167,0.918-0.5C46.475,48.787,46.583,48.24,46.583,47.479z M51.288,45.468c-0.024-0.016-0.075-0.036-0.154-0.059
	c-0.079-0.024-0.186-0.036-0.32-0.036c-0.3,0-0.535,0.081-0.705,0.244c-0.17,0.163-0.29,0.339-0.361,0.529v4.188h-0.96v-5.711h0.877
	v0.773h0.024c0.04-0.111,0.091-0.22,0.154-0.327c0.063-0.107,0.142-0.202,0.237-0.286c0.095-0.083,0.207-0.149,0.338-0.196
	c0.13-0.048,0.286-0.071,0.468-0.071c0.134,0,0.243,0.012,0.326,0.036c0.083,0.024,0.148,0.044,0.195,0.059L51.288,45.468z
	 M58.624,42.946h-2.915v2.832h2.678v0.821h-2.678v2.879h3.212l-0.059,0.857h-4.183v-8.209h4.017L58.624,42.946z M63.174,45.73
	c-0.024-0.024-0.061-0.059-0.113-0.107c-0.051-0.048-0.117-0.095-0.196-0.143c-0.079-0.048-0.174-0.089-0.284-0.125
	c-0.111-0.036-0.237-0.053-0.379-0.053c-0.205,0-0.397,0.038-0.575,0.113c-0.178,0.075-0.332,0.196-0.462,0.363
	c-0.13,0.167-0.233,0.383-0.308,0.648c-0.075,0.266-0.113,0.589-0.113,0.97c0,0.42,0.034,0.773,0.101,1.059
	c0.067,0.286,0.16,0.514,0.278,0.684c0.119,0.171,0.263,0.294,0.433,0.369c0.17,0.075,0.357,0.113,0.563,0.113
	c0.292,0,0.516-0.052,0.67-0.155c0.154-0.103,0.263-0.186,0.326-0.25l0.391,0.666c-0.04,0.048-0.097,0.105-0.172,0.172
	c-0.075,0.067-0.172,0.133-0.29,0.196c-0.119,0.063-0.263,0.117-0.433,0.161c-0.17,0.044-0.365,0.065-0.587,0.065
	c-0.316,0-0.612-0.052-0.889-0.155c-0.277-0.103-0.517-0.274-0.723-0.512c-0.205-0.238-0.367-0.547-0.486-0.928
	c-0.119-0.381-0.178-0.853-0.178-1.416c0-0.547,0.071-1.011,0.213-1.392c0.142-0.381,0.328-0.688,0.557-0.922
	c0.229-0.234,0.484-0.405,0.764-0.512c0.28-0.107,0.563-0.161,0.847-0.161c0.213,0,0.401,0.02,0.563,0.059
	c0.162,0.04,0.3,0.089,0.415,0.149c0.115,0.059,0.209,0.123,0.284,0.19c0.075,0.067,0.136,0.125,0.184,0.173L63.174,45.73z
	 M64.229,47.479c0-0.523,0.061-0.976,0.184-1.356c0.122-0.381,0.288-0.692,0.498-0.934c0.209-0.242,0.45-0.42,0.723-0.535
	c0.273-0.115,0.563-0.172,0.871-0.172c0.316,0,0.608,0.057,0.877,0.172c0.269,0.115,0.502,0.294,0.699,0.535
	c0.197,0.242,0.354,0.553,0.468,0.934c0.115,0.381,0.172,0.833,0.172,1.356c0,0.531-0.059,0.987-0.178,1.368
	c-0.119,0.381-0.282,0.692-0.492,0.934c-0.209,0.242-0.452,0.418-0.729,0.529c-0.277,0.111-0.569,0.167-0.877,0.167
	c-0.316,0-0.608-0.055-0.877-0.167s-0.502-0.288-0.699-0.529c-0.197-0.242-0.354-0.551-0.468-0.928
	C64.286,48.476,64.229,48.018,64.229,47.479z M67.725,47.479c0-0.761-0.111-1.315-0.332-1.66c-0.221-0.345-0.529-0.518-0.924-0.518
	c-0.395,0-0.701,0.172-0.918,0.518c-0.217,0.345-0.326,0.898-0.326,1.66c0,0.761,0.111,1.309,0.332,1.642
	c0.221,0.333,0.529,0.5,0.924,0.5c0.395,0,0.701-0.167,0.918-0.5C67.616,48.787,67.725,48.24,67.725,47.479z M73.034,50.334v-3.676
	c0-0.484-0.081-0.831-0.243-1.041c-0.162-0.21-0.409-0.315-0.741-0.315c-0.284,0-0.521,0.071-0.711,0.214
	c-0.19,0.143-0.34,0.282-0.45,0.416v4.402h-0.96v-5.711h0.877v0.642h0.024c0.024-0.048,0.075-0.117,0.154-0.208
	c0.079-0.091,0.182-0.178,0.308-0.262c0.126-0.083,0.277-0.157,0.45-0.22c0.174-0.063,0.371-0.095,0.593-0.095
	c0.253,0,0.482,0.038,0.687,0.113c0.205,0.075,0.379,0.196,0.521,0.363c0.142,0.167,0.253,0.383,0.332,0.648
	c0.079,0.266,0.119,0.593,0.119,0.982v3.748H73.034z M75.167,47.479c0-0.523,0.061-0.976,0.184-1.356
	c0.122-0.381,0.288-0.692,0.498-0.934c0.209-0.242,0.45-0.42,0.723-0.535c0.273-0.115,0.563-0.172,0.871-0.172
	c0.316,0,0.608,0.057,0.877,0.172c0.269,0.115,0.502,0.294,0.699,0.535c0.197,0.242,0.354,0.553,0.468,0.934
	c0.115,0.381,0.172,0.833,0.172,1.356c0,0.531-0.059,0.987-0.178,1.368c-0.119,0.381-0.282,0.692-0.492,0.934
	c-0.209,0.242-0.452,0.418-0.729,0.529c-0.277,0.111-0.569,0.167-0.877,0.167c-0.316,0-0.608-0.055-0.877-0.167
	s-0.502-0.288-0.699-0.529c-0.197-0.242-0.354-0.551-0.468-0.928C75.225,48.476,75.167,48.018,75.167,47.479z M78.663,47.479
	c0-0.761-0.111-1.315-0.332-1.66c-0.221-0.345-0.529-0.518-0.924-0.518c-0.395,0-0.701,0.172-0.918,0.518
	c-0.217,0.345-0.326,0.898-0.326,1.66c0,0.761,0.111,1.309,0.332,1.642c0.221,0.333,0.529,0.5,0.924,0.5
	c0.395,0,0.701-0.167,0.918-0.5C78.555,48.787,78.663,48.24,78.663,47.479z M83.854,50.334v-3.676c0-0.468-0.067-0.805-0.201-1.011
	c-0.134-0.206-0.352-0.309-0.652-0.309c-0.158,0-0.298,0.02-0.421,0.059c-0.122,0.04-0.231,0.089-0.326,0.149
	c-0.095,0.059-0.178,0.125-0.249,0.196c-0.071,0.071-0.13,0.135-0.178,0.19v4.402h-0.96v-5.711h0.877v0.642h0.024
	c0.04-0.063,0.099-0.141,0.178-0.232c0.079-0.091,0.178-0.179,0.296-0.262c0.119-0.083,0.257-0.153,0.415-0.208
	s0.336-0.083,0.533-0.083c0.648,0,1.106,0.254,1.375,0.761c0.055-0.079,0.13-0.165,0.225-0.256c0.095-0.091,0.205-0.174,0.332-0.25
	c0.126-0.075,0.269-0.137,0.427-0.184c0.158-0.048,0.332-0.071,0.521-0.071c1.154,0,1.73,0.674,1.73,2.023v3.831h-0.96v-3.676
	c0-0.468-0.083-0.805-0.249-1.011c-0.166-0.206-0.411-0.309-0.735-0.309c-0.269,0-0.492,0.065-0.67,0.196
	c-0.178,0.131-0.318,0.256-0.421,0.375c0.016,0.087,0.028,0.18,0.036,0.28c0.008,0.099,0.012,0.204,0.012,0.315v3.831H83.854z
	 M90.194,50.334h-0.96v-5.711h0.96V50.334z M89.72,43.243c-0.197,0-0.356-0.063-0.474-0.19c-0.119-0.127-0.178-0.293-0.178-0.5
	c0-0.198,0.059-0.361,0.178-0.488c0.119-0.127,0.277-0.19,0.474-0.19c0.19,0,0.344,0.063,0.462,0.19
	c0.119,0.127,0.178,0.29,0.178,0.488c0,0.206-0.059,0.373-0.178,0.5C90.064,43.18,89.91,43.243,89.72,43.243z M94.828,45.73
	c-0.024-0.024-0.061-0.059-0.113-0.107c-0.051-0.048-0.117-0.095-0.196-0.143c-0.079-0.048-0.174-0.089-0.284-0.125
	c-0.111-0.036-0.237-0.053-0.379-0.053c-0.205,0-0.397,0.038-0.575,0.113c-0.178,0.075-0.332,0.196-0.462,0.363
	c-0.13,0.167-0.233,0.383-0.308,0.648c-0.075,0.266-0.113,0.589-0.113,0.97c0,0.42,0.034,0.773,0.101,1.059
	c0.067,0.286,0.16,0.514,0.278,0.684c0.119,0.171,0.263,0.294,0.433,0.369c0.17,0.075,0.357,0.113,0.563,0.113
	c0.292,0,0.516-0.052,0.67-0.155c0.154-0.103,0.263-0.186,0.326-0.25l0.391,0.666c-0.04,0.048-0.097,0.105-0.172,0.172
	c-0.075,0.067-0.172,0.133-0.29,0.196c-0.119,0.063-0.263,0.117-0.433,0.161c-0.17,0.044-0.365,0.065-0.587,0.065
	c-0.316,0-0.612-0.052-0.889-0.155c-0.277-0.103-0.517-0.274-0.723-0.512c-0.205-0.238-0.367-0.547-0.486-0.928
	c-0.119-0.381-0.178-0.853-0.178-1.416c0-0.547,0.071-1.011,0.213-1.392c0.142-0.381,0.328-0.688,0.557-0.922
	c0.229-0.234,0.484-0.405,0.764-0.512c0.28-0.107,0.563-0.161,0.847-0.161c0.213,0,0.401,0.02,0.563,0.059
	c0.162,0.04,0.3,0.089,0.415,0.149c0.115,0.059,0.209,0.123,0.284,0.19c0.075,0.067,0.136,0.125,0.184,0.173L94.828,45.73z
	 M103.989,50.334h-1.138l-0.735-2.629h-2.477l-0.747,2.629H97.85l2.666-8.209h0.806L103.989,50.334z M101.891,46.92l-0.64-2.249
	c-0.087-0.301-0.162-0.589-0.225-0.863s-0.099-0.502-0.107-0.684h-0.024c-0.008,0.182-0.045,0.407-0.113,0.672
	c-0.067,0.266-0.144,0.549-0.231,0.851l-0.675,2.272H101.891z M107.188,45.409h-1.161v4.926h-0.96v-4.926h-0.687v-0.642l0.687-0.131
	v-1.142c0-0.309,0.043-0.575,0.13-0.797s0.201-0.405,0.344-0.547c0.142-0.143,0.308-0.246,0.498-0.309s0.391-0.095,0.604-0.095
	c0.205,0,0.379,0.028,0.521,0.083s0.237,0.099,0.284,0.131l-0.201,0.797c-0.047-0.032-0.115-0.065-0.201-0.101
	c-0.087-0.036-0.194-0.053-0.32-0.053c-0.229,0-0.403,0.071-0.521,0.214s-0.178,0.405-0.178,0.785v1.023h1.28L107.188,45.409z
	 M110.53,45.409h-1.161v4.926h-0.96v-4.926h-0.687v-0.642l0.687-0.131v-1.142c0-0.309,0.043-0.575,0.13-0.797
	c0.087-0.222,0.201-0.405,0.344-0.547c0.142-0.143,0.308-0.246,0.498-0.309c0.19-0.063,0.391-0.095,0.604-0.095
	c0.205,0,0.379,0.028,0.521,0.083c0.142,0.055,0.237,0.099,0.284,0.131l-0.201,0.797c-0.047-0.032-0.115-0.065-0.201-0.101
	c-0.087-0.036-0.194-0.053-0.32-0.053c-0.229,0-0.403,0.071-0.521,0.214s-0.178,0.405-0.178,0.785v1.023h1.28L110.53,45.409z
	 M111.087,48.883c0-0.333,0.063-0.611,0.19-0.833c0.126-0.222,0.296-0.403,0.51-0.541c0.213-0.139,0.464-0.238,0.753-0.297
	c0.288-0.059,0.594-0.089,0.918-0.089h0.296v-0.547c0-0.484-0.085-0.817-0.255-0.999c-0.17-0.182-0.409-0.274-0.717-0.274
	c-0.284,0-0.521,0.061-0.711,0.184c-0.19,0.123-0.34,0.232-0.45,0.327l-0.403-0.642c0.063-0.063,0.144-0.135,0.243-0.214
	c0.099-0.079,0.219-0.155,0.361-0.226c0.142-0.071,0.304-0.131,0.486-0.178c0.182-0.048,0.387-0.071,0.616-0.071
	c0.585,0,1.027,0.163,1.327,0.488c0.3,0.325,0.45,0.849,0.45,1.57v2.606c0,0.246,0.008,0.486,0.024,0.72
	c0.016,0.234,0.032,0.391,0.047,0.47h-0.913l-0.036-0.631h-0.024c-0.032,0.071-0.079,0.153-0.142,0.244
	c-0.063,0.091-0.142,0.175-0.237,0.25c-0.095,0.075-0.209,0.141-0.344,0.196c-0.134,0.055-0.292,0.083-0.474,0.083
	c-0.213,0-0.413-0.04-0.598-0.119c-0.186-0.079-0.348-0.19-0.486-0.333c-0.138-0.143-0.245-0.311-0.32-0.506
	C111.125,49.325,111.087,49.113,111.087,48.883z M112.806,49.656c0.134,0,0.253-0.02,0.356-0.059
	c0.103-0.04,0.192-0.087,0.267-0.143c0.075-0.055,0.138-0.117,0.19-0.184c0.051-0.067,0.097-0.125,0.136-0.172v-1.261l-0.308,0.012
	c-0.458,0.016-0.806,0.095-1.043,0.238c-0.237,0.143-0.356,0.373-0.356,0.69c0,0.293,0.067,0.514,0.201,0.66
	C112.383,49.583,112.569,49.656,112.806,49.656z M117.107,50.334h-0.96v-5.711h0.96V50.334z M116.633,43.243
	c-0.197,0-0.356-0.063-0.474-0.19c-0.119-0.127-0.178-0.293-0.178-0.5c0-0.198,0.059-0.361,0.178-0.488
	c0.119-0.127,0.277-0.19,0.474-0.19c0.19,0,0.344,0.063,0.462,0.19c0.119,0.127,0.178,0.29,0.178,0.488
	c0,0.206-0.059,0.373-0.178,0.5C116.977,43.18,116.823,43.243,116.633,43.243z M121.077,45.468
	c-0.024-0.016-0.075-0.036-0.154-0.059c-0.079-0.024-0.186-0.036-0.32-0.036c-0.3,0-0.535,0.081-0.705,0.244
	c-0.17,0.163-0.29,0.339-0.361,0.529v4.188h-0.96v-5.711h0.877v0.773h0.024c0.04-0.111,0.091-0.22,0.154-0.327
	s0.142-0.202,0.237-0.286c0.095-0.083,0.207-0.149,0.338-0.196c0.13-0.048,0.286-0.071,0.468-0.071c0.134,0,0.243,0.012,0.326,0.036
	c0.083,0.024,0.148,0.044,0.195,0.059L121.077,45.468z M124.431,45.777c-0.063-0.071-0.178-0.169-0.344-0.292
	c-0.166-0.123-0.383-0.184-0.652-0.184c-0.253,0-0.446,0.059-0.581,0.178c-0.134,0.119-0.201,0.262-0.201,0.428
	c0,0.214,0.061,0.391,0.184,0.529c0.122,0.139,0.31,0.288,0.563,0.446l0.356,0.214c0.387,0.23,0.691,0.478,0.913,0.744
	c0.221,0.266,0.332,0.609,0.332,1.029c0,0.452-0.156,0.833-0.468,1.142c-0.312,0.309-0.76,0.464-1.345,0.464
	c-0.229,0-0.431-0.024-0.604-0.071c-0.174-0.048-0.326-0.103-0.456-0.167c-0.13-0.063-0.239-0.133-0.326-0.208
	c-0.087-0.075-0.158-0.145-0.213-0.208l0.462-0.761c0.047,0.048,0.105,0.103,0.172,0.167c0.067,0.063,0.148,0.125,0.243,0.184
	c0.095,0.059,0.201,0.109,0.32,0.149c0.119,0.04,0.257,0.059,0.415,0.059c0.284,0,0.502-0.063,0.652-0.19s0.225-0.282,0.225-0.464
	c0-0.135-0.018-0.252-0.053-0.351c-0.036-0.099-0.089-0.188-0.16-0.268c-0.071-0.079-0.158-0.155-0.261-0.226
	c-0.103-0.071-0.221-0.151-0.356-0.238l-0.356-0.226c-0.356-0.23-0.634-0.472-0.835-0.726c-0.201-0.254-0.302-0.579-0.302-0.976
	c0-0.214,0.042-0.411,0.124-0.589c0.083-0.178,0.199-0.333,0.35-0.464c0.15-0.131,0.326-0.234,0.527-0.309
	c0.201-0.075,0.417-0.113,0.646-0.113c0.221,0,0.411,0.022,0.569,0.065c0.158,0.044,0.294,0.099,0.409,0.167
	c0.115,0.067,0.209,0.135,0.284,0.202c0.075,0.067,0.136,0.125,0.184,0.173L124.431,45.777z M39.781,60.88
	c0-0.333,0.063-0.611,0.19-0.833c0.126-0.222,0.296-0.403,0.51-0.541c0.213-0.139,0.464-0.238,0.753-0.297
	c0.288-0.059,0.594-0.089,0.918-0.089h0.296v-0.547c0-0.484-0.085-0.817-0.255-0.999c-0.17-0.182-0.409-0.274-0.717-0.274
	c-0.284,0-0.521,0.061-0.711,0.184c-0.19,0.123-0.34,0.232-0.45,0.327l-0.403-0.642c0.063-0.063,0.144-0.135,0.243-0.214
	c0.099-0.079,0.219-0.155,0.361-0.226s0.304-0.131,0.486-0.178c0.182-0.048,0.387-0.071,0.616-0.071
	c0.585,0,1.027,0.163,1.327,0.488c0.3,0.325,0.45,0.849,0.45,1.57v2.606c0,0.246,0.008,0.486,0.024,0.72
	c0.016,0.234,0.032,0.391,0.047,0.47h-0.913l-0.036-0.631h-0.024c-0.032,0.071-0.079,0.153-0.142,0.244
	c-0.063,0.091-0.142,0.175-0.237,0.25c-0.095,0.075-0.209,0.141-0.344,0.196s-0.292,0.083-0.474,0.083
	c-0.213,0-0.413-0.04-0.598-0.119c-0.186-0.079-0.348-0.19-0.486-0.333c-0.138-0.143-0.245-0.311-0.32-0.506
	C39.819,61.322,39.781,61.11,39.781,60.88z M41.499,61.653c0.134,0,0.253-0.02,0.356-0.059c0.103-0.04,0.192-0.087,0.267-0.143
	c0.075-0.055,0.138-0.117,0.19-0.184c0.051-0.067,0.097-0.125,0.136-0.172v-1.261l-0.308,0.012
	c-0.458,0.016-0.806,0.095-1.043,0.238c-0.237,0.143-0.356,0.373-0.356,0.69c0,0.293,0.067,0.514,0.201,0.66
	C41.077,61.58,41.262,61.653,41.499,61.653z M47.946,62.332v-3.676c0-0.484-0.081-0.831-0.243-1.041
	c-0.162-0.21-0.409-0.315-0.741-0.315c-0.284,0-0.521,0.071-0.711,0.214c-0.19,0.143-0.34,0.282-0.45,0.416v4.402h-0.96v-5.711
	h0.877v0.642h0.024c0.024-0.048,0.075-0.117,0.154-0.208c0.079-0.091,0.182-0.178,0.308-0.262c0.126-0.083,0.277-0.157,0.45-0.22
	s0.371-0.095,0.593-0.095c0.253,0,0.482,0.038,0.687,0.113c0.205,0.075,0.379,0.196,0.521,0.363
	c0.142,0.167,0.253,0.383,0.332,0.648c0.079,0.266,0.119,0.593,0.119,0.982v3.748H47.946z M50.079,59.56
	c0-0.579,0.075-1.063,0.225-1.451c0.15-0.389,0.344-0.702,0.581-0.94c0.237-0.238,0.506-0.407,0.806-0.506
	c0.3-0.099,0.6-0.149,0.901-0.149c0.182,0,0.34,0.014,0.474,0.042c0.134,0.028,0.245,0.061,0.332,0.101V53.92l0.96-0.107v8.519
	H53.48v-0.607h-0.024c-0.024,0.048-0.067,0.113-0.13,0.196c-0.063,0.083-0.15,0.167-0.261,0.25s-0.249,0.155-0.415,0.214
	c-0.166,0.059-0.36,0.089-0.581,0.089c-0.269,0-0.523-0.053-0.764-0.161c-0.241-0.107-0.452-0.278-0.634-0.512
	c-0.182-0.234-0.326-0.535-0.433-0.904C50.133,60.529,50.079,60.083,50.079,59.56z M52.331,61.618c0.15,0,0.284-0.02,0.403-0.059
	c0.119-0.04,0.221-0.089,0.308-0.149c0.087-0.059,0.16-0.121,0.219-0.184c0.059-0.063,0.105-0.119,0.136-0.167v-3.522
	c-0.087-0.055-0.188-0.103-0.302-0.143c-0.115-0.04-0.259-0.059-0.433-0.059c-0.221,0-0.429,0.038-0.622,0.113
	c-0.194,0.075-0.361,0.2-0.504,0.375c-0.142,0.174-0.255,0.401-0.338,0.678c-0.083,0.278-0.124,0.619-0.124,1.023
	c0,0.397,0.034,0.728,0.101,0.993c0.067,0.266,0.16,0.48,0.278,0.642c0.119,0.163,0.253,0.28,0.403,0.351
	C52.007,61.582,52.165,61.618,52.331,61.618z M58.162,58.227c0-0.769,0.095-1.424,0.284-1.963c0.19-0.539,0.44-0.978,0.753-1.315
	c0.312-0.337,0.668-0.583,1.067-0.738c0.399-0.155,0.808-0.232,1.227-0.232c0.3,0,0.559,0.032,0.776,0.095
	c0.217,0.063,0.403,0.137,0.557,0.22s0.278,0.171,0.373,0.262c0.095,0.091,0.17,0.165,0.225,0.22l-0.557,0.69
	c-0.04-0.04-0.095-0.095-0.166-0.167c-0.071-0.071-0.16-0.141-0.267-0.208c-0.107-0.067-0.235-0.127-0.385-0.178
	c-0.15-0.051-0.324-0.077-0.521-0.077c-0.3,0-0.589,0.059-0.865,0.178c-0.277,0.119-0.517,0.311-0.723,0.577
	c-0.205,0.266-0.369,0.609-0.492,1.029c-0.122,0.42-0.184,0.932-0.184,1.535c0,0.627,0.051,1.156,0.154,1.588
	c0.103,0.432,0.249,0.785,0.438,1.059c0.19,0.274,0.417,0.472,0.681,0.595c0.265,0.123,0.559,0.184,0.883,0.184
	c0.229,0,0.429-0.024,0.599-0.071c0.17-0.048,0.318-0.103,0.444-0.167c0.126-0.063,0.229-0.129,0.308-0.196
	c0.079-0.067,0.142-0.125,0.19-0.172l0.391,0.702c-0.055,0.055-0.132,0.129-0.231,0.22c-0.099,0.091-0.231,0.178-0.397,0.262
	c-0.166,0.083-0.363,0.157-0.593,0.22c-0.229,0.063-0.502,0.095-0.818,0.095c-0.474,0-0.905-0.077-1.292-0.232
	c-0.387-0.155-0.719-0.401-0.995-0.738c-0.277-0.337-0.49-0.775-0.64-1.315S58.162,58.996,58.162,58.227z M65.367,60.999
	c0,0.238,0.034,0.405,0.101,0.5c0.067,0.095,0.184,0.143,0.35,0.143c0.087,0,0.16-0.008,0.219-0.024
	c0.059-0.016,0.105-0.032,0.136-0.048l0.083,0.714c-0.047,0.024-0.134,0.055-0.261,0.095s-0.296,0.059-0.51,0.059
	c-0.324,0-0.585-0.099-0.782-0.297c-0.197-0.198-0.296-0.551-0.296-1.059V53.92l0.96-0.107V60.999z M68.081,62.332h-0.96v-5.711
	h0.96V62.332z M67.607,55.241c-0.197,0-0.356-0.063-0.474-0.19c-0.119-0.127-0.178-0.293-0.178-0.5c0-0.198,0.059-0.361,0.178-0.488
	c0.119-0.127,0.277-0.19,0.474-0.19c0.19,0,0.344,0.063,0.462,0.19c0.119,0.127,0.178,0.29,0.178,0.488
	c0,0.206-0.059,0.373-0.178,0.5S67.796,55.241,67.607,55.241z M72.537,62.332v-3.676c0-0.468-0.067-0.805-0.201-1.011
	c-0.134-0.206-0.352-0.309-0.652-0.309c-0.158,0-0.298,0.02-0.421,0.059c-0.122,0.04-0.231,0.089-0.326,0.149
	c-0.095,0.059-0.178,0.125-0.249,0.196c-0.071,0.071-0.13,0.135-0.178,0.19v4.402h-0.96v-5.711h0.877v0.642h0.024
	c0.04-0.063,0.099-0.141,0.178-0.232c0.079-0.091,0.178-0.179,0.296-0.262s0.257-0.153,0.415-0.208
	c0.158-0.055,0.336-0.083,0.533-0.083c0.648,0,1.106,0.254,1.375,0.761c0.055-0.079,0.13-0.165,0.225-0.256
	c0.095-0.091,0.205-0.174,0.332-0.25c0.126-0.075,0.269-0.137,0.427-0.184c0.158-0.048,0.332-0.071,0.521-0.071
	c1.154,0,1.73,0.674,1.73,2.023v3.831h-0.96v-3.676c0-0.468-0.083-0.805-0.249-1.011c-0.166-0.206-0.411-0.309-0.735-0.309
	c-0.269,0-0.492,0.065-0.67,0.196c-0.178,0.131-0.318,0.256-0.421,0.375c0.016,0.087,0.028,0.18,0.036,0.28
	c0.008,0.099,0.012,0.204,0.012,0.315v3.831H72.537z M77.585,60.88c0-0.333,0.063-0.611,0.19-0.833s0.296-0.403,0.51-0.541
	c0.213-0.139,0.464-0.238,0.753-0.297c0.288-0.059,0.594-0.089,0.918-0.089h0.296v-0.547c0-0.484-0.085-0.817-0.255-0.999
	c-0.17-0.182-0.409-0.274-0.717-0.274c-0.284,0-0.521,0.061-0.711,0.184c-0.19,0.123-0.34,0.232-0.45,0.327l-0.403-0.642
	c0.063-0.063,0.144-0.135,0.243-0.214c0.099-0.079,0.219-0.155,0.361-0.226s0.304-0.131,0.486-0.178
	c0.182-0.048,0.387-0.071,0.616-0.071c0.585,0,1.027,0.163,1.327,0.488c0.3,0.325,0.45,0.849,0.45,1.57v2.606
	c0,0.246,0.008,0.486,0.024,0.72c0.016,0.234,0.032,0.391,0.047,0.47h-0.913l-0.036-0.631h-0.024
	c-0.032,0.071-0.079,0.153-0.142,0.244c-0.063,0.091-0.142,0.175-0.237,0.25c-0.095,0.075-0.209,0.141-0.344,0.196
	c-0.134,0.055-0.292,0.083-0.474,0.083c-0.213,0-0.413-0.04-0.598-0.119c-0.186-0.079-0.348-0.19-0.486-0.333
	c-0.138-0.143-0.245-0.311-0.32-0.506C77.623,61.322,77.585,61.11,77.585,60.88z M79.303,61.653c0.134,0,0.253-0.02,0.356-0.059
	c0.103-0.04,0.192-0.087,0.267-0.143c0.075-0.055,0.138-0.117,0.19-0.184c0.051-0.067,0.097-0.125,0.136-0.172v-1.261l-0.308,0.012
	c-0.458,0.016-0.806,0.095-1.043,0.238c-0.237,0.143-0.356,0.373-0.356,0.69c0,0.293,0.067,0.514,0.201,0.66
	C78.881,61.58,79.066,61.653,79.303,61.653z M85.075,57.406H83.83v3.165c0,0.405,0.051,0.68,0.154,0.827
	c0.103,0.147,0.277,0.22,0.521,0.22c0.142,0,0.265-0.02,0.367-0.059c0.103-0.04,0.178-0.075,0.225-0.107l0.13,0.773
	c-0.04,0.032-0.134,0.081-0.284,0.149c-0.15,0.067-0.352,0.101-0.604,0.101c-0.49,0-0.857-0.137-1.102-0.411
	c-0.245-0.274-0.367-0.728-0.367-1.362v-3.296h-0.687v-0.642l0.687-0.143l0.107-1.594h0.853v1.594h1.363L85.075,57.406z
	 M89.732,58.548c0,0.246-0.008,0.458-0.024,0.636s-0.032,0.335-0.047,0.47h-2.903c0.032,0.674,0.176,1.17,0.433,1.487
	c0.257,0.317,0.626,0.476,1.108,0.476c0.166,0,0.316-0.02,0.45-0.059c0.134-0.04,0.251-0.087,0.35-0.143
	c0.099-0.055,0.182-0.111,0.249-0.167c0.067-0.055,0.117-0.099,0.148-0.131l0.356,0.678c-0.04,0.04-0.099,0.097-0.178,0.172
	c-0.079,0.075-0.186,0.151-0.32,0.226c-0.134,0.075-0.3,0.141-0.498,0.196s-0.431,0.083-0.699,0.083
	c-0.356,0-0.677-0.059-0.966-0.178c-0.288-0.119-0.533-0.303-0.735-0.553c-0.201-0.25-0.358-0.567-0.468-0.952
	c-0.111-0.385-0.166-0.847-0.166-1.386c0-0.508,0.057-0.946,0.172-1.315c0.115-0.369,0.271-0.672,0.468-0.91
	s0.427-0.414,0.687-0.529c0.261-0.115,0.541-0.172,0.841-0.172c0.545,0,0.972,0.172,1.28,0.517S89.732,57.858,89.732,58.548z
	 M87.931,57.263c-0.34,0-0.612,0.143-0.818,0.428c-0.205,0.286-0.324,0.698-0.356,1.237h2.074c0.008-0.04,0.014-0.097,0.018-0.173
	c0.004-0.075,0.006-0.157,0.006-0.244c0-0.397-0.079-0.704-0.237-0.922C88.46,57.372,88.231,57.263,87.931,57.263z M98.762,62.332
	h-1.138l-0.735-2.629h-2.477l-0.747,2.629h-1.043l2.666-8.209h0.806L98.762,62.332z M96.665,58.917l-0.64-2.249
	c-0.087-0.301-0.162-0.589-0.225-0.863c-0.063-0.274-0.099-0.502-0.107-0.684h-0.024c-0.008,0.182-0.045,0.407-0.113,0.672
	c-0.067,0.266-0.144,0.549-0.231,0.851l-0.675,2.272H96.665z M102.732,57.727c-0.024-0.024-0.061-0.059-0.113-0.107
	c-0.051-0.048-0.117-0.095-0.196-0.143c-0.079-0.048-0.174-0.089-0.284-0.125c-0.111-0.036-0.237-0.053-0.379-0.053
	c-0.205,0-0.397,0.038-0.575,0.113c-0.178,0.075-0.332,0.196-0.462,0.363c-0.13,0.167-0.233,0.383-0.308,0.648
	c-0.075,0.266-0.113,0.589-0.113,0.97c0,0.42,0.034,0.773,0.101,1.059c0.067,0.286,0.16,0.514,0.278,0.684
	c0.119,0.171,0.263,0.294,0.433,0.369c0.17,0.075,0.357,0.113,0.563,0.113c0.292,0,0.516-0.052,0.67-0.155
	c0.154-0.103,0.263-0.186,0.326-0.25l0.391,0.666c-0.04,0.048-0.097,0.105-0.172,0.172c-0.075,0.067-0.172,0.133-0.29,0.196
	c-0.119,0.063-0.263,0.117-0.433,0.161c-0.17,0.044-0.365,0.065-0.587,0.065c-0.316,0-0.612-0.052-0.889-0.155
	c-0.277-0.103-0.517-0.274-0.723-0.512c-0.205-0.238-0.367-0.547-0.486-0.928c-0.119-0.381-0.178-0.853-0.178-1.416
	c0-0.547,0.071-1.011,0.213-1.392s0.328-0.688,0.557-0.922c0.229-0.234,0.484-0.405,0.764-0.512c0.28-0.107,0.563-0.161,0.847-0.161
	c0.213,0,0.401,0.02,0.563,0.059c0.162,0.04,0.3,0.089,0.415,0.149c0.115,0.059,0.209,0.123,0.284,0.19
	c0.075,0.067,0.136,0.125,0.184,0.173L102.732,57.727z M106.572,57.406h-1.244v3.165c0,0.405,0.051,0.68,0.154,0.827
	c0.103,0.147,0.277,0.22,0.521,0.22c0.142,0,0.265-0.02,0.367-0.059c0.103-0.04,0.178-0.075,0.225-0.107l0.13,0.773
	c-0.04,0.032-0.134,0.081-0.284,0.149c-0.15,0.067-0.352,0.101-0.604,0.101c-0.49,0-0.857-0.137-1.102-0.411
	c-0.245-0.274-0.367-0.728-0.367-1.362v-3.296h-0.687v-0.642l0.687-0.143l0.107-1.594h0.853v1.594h1.363L106.572,57.406z
	 M108.622,62.332h-0.96v-5.711h0.96V62.332z M108.148,55.241c-0.197,0-0.356-0.063-0.474-0.19s-0.178-0.293-0.178-0.5
	c0-0.198,0.059-0.361,0.178-0.488c0.119-0.127,0.277-0.19,0.474-0.19c0.19,0,0.344,0.063,0.462,0.19
	c0.119,0.127,0.178,0.29,0.178,0.488c0,0.206-0.059,0.373-0.178,0.5C108.492,55.177,108.338,55.241,108.148,55.241z M109.831,59.476
	c0-0.523,0.061-0.976,0.184-1.356c0.122-0.381,0.288-0.692,0.498-0.934c0.209-0.242,0.45-0.42,0.723-0.535
	c0.273-0.115,0.563-0.172,0.871-0.172c0.316,0,0.608,0.057,0.877,0.172c0.269,0.115,0.502,0.294,0.699,0.535
	c0.197,0.242,0.354,0.553,0.468,0.934c0.115,0.381,0.172,0.833,0.172,1.356c0,0.531-0.059,0.987-0.178,1.368
	c-0.119,0.381-0.282,0.692-0.492,0.934c-0.209,0.242-0.452,0.418-0.729,0.529s-0.569,0.167-0.877,0.167
	c-0.316,0-0.608-0.055-0.877-0.167s-0.502-0.288-0.699-0.529c-0.197-0.242-0.354-0.551-0.468-0.928
	C109.888,60.474,109.831,60.016,109.831,59.476z M113.327,59.476c0-0.761-0.111-1.315-0.332-1.66
	c-0.221-0.345-0.529-0.518-0.924-0.518s-0.701,0.172-0.918,0.518c-0.217,0.345-0.326,0.898-0.326,1.66s0.111,1.309,0.332,1.642
	c0.221,0.333,0.529,0.5,0.924,0.5c0.395,0,0.701-0.167,0.918-0.5C113.218,60.785,113.327,60.238,113.327,59.476z M118.636,62.332
	v-3.676c0-0.484-0.081-0.831-0.243-1.041c-0.162-0.21-0.409-0.315-0.741-0.315c-0.284,0-0.521,0.071-0.711,0.214
	c-0.19,0.143-0.34,0.282-0.45,0.416v4.402h-0.96v-5.711h0.877v0.642h0.024c0.024-0.048,0.075-0.117,0.154-0.208
	c0.079-0.091,0.182-0.178,0.308-0.262s0.277-0.157,0.45-0.22c0.174-0.063,0.371-0.095,0.593-0.095c0.253,0,0.482,0.038,0.687,0.113
	c0.205,0.075,0.379,0.196,0.521,0.363c0.142,0.167,0.253,0.383,0.332,0.648c0.079,0.266,0.119,0.593,0.119,0.982v3.748H118.636z"/>
</svg>
