<?xml version="1.0" encoding="UTF-8"?>
<!DOCTYPE svg PUBLIC "-//W3C//DTD SVG 1.1//EN" "http://www.w3.org/Graphics/SVG/1.1/DTD/svg11.dtd">
<svg version="1.1" xmlns="http://www.w3.org/2000/svg" xmlns:xlink="http://www.w3.org/1999/xlink" x="0" y="0" width="100" height="14" viewBox="0, 0, 100, 14">
<g id="Background">
<rect x="0" y="0" width="100" height="14" fill="#000000" fill-opacity="0"/>
</g>
<defs>
<linearGradient id="Gradient_1" gradientUnits="userSpaceOnUse" x1="-1.276" y1="7.002" x2="39.443" y2="7.002">
<stop offset="0" stop-color="#F7A600"/>
<stop offset="0.04" stop-color="#F7A600"/>
<stop offset="0.97" stop-color="#FFCC00"/>
<stop offset="1" stop-color="#FFCC00"/>
</linearGradient>
<linearGradient id="Gradient_2" gradientUnits="userSpaceOnUse" x1="-1.276" y1="8.093" x2="39.443" y2="8.093">
<stop offset="0" stop-color="#E94D18"/>
<stop offset="0.15" stop-color="#E94D18"/>
<stop offset="0.84" stop-color="#F9B000"/>
<stop offset="0.98" stop-color="#EF7C00"/>
<stop offset="1" stop-color="#EF7C00"/>
</linearGradient>
<linearGradient id="Gradient_3" gradientUnits="userSpaceOnUse" x1="18.113" y1="6.421" x2="21.286" y2="-5.423">
<stop offset="0" stop-color="#888887"/>
<stop offset="0.9" stop-color="#B5B5B6"/>
<stop offset="1" stop-color="#B5B5B6"/>
</linearGradient>
<clipPath id="Clip_1">
<path d="M0,0.1 L100,0.1 L100,13.9 L0,13.9 z"/>
</clipPath>
</defs>
<g id="Layer_1">
<path d="M-0,7.1 C-0,9.334 0.57,11.043 1.695,12.18 L1.695,12.18 C2.815,13.312 4.494,13.887 6.686,13.887 L6.686,13.887 C8.589,13.887 10.268,13.451 10.71,13.326 L10.71,13.326 L10.71,6.38 L6.007,6.38 L6.007,8.801 L7.628,8.801 L7.628,11.432 L7.481,11.445 C7.462,11.447 7.01,11.486 6.686,11.486 L6.686,11.486 C5.666,11.486 4.893,11.097 4.391,10.33 L4.391,10.33 C3.901,9.578 3.662,8.483 3.662,6.98 L3.662,6.98 C3.662,5.428 3.925,4.385 4.489,3.696 L4.489,3.696 C5.084,2.971 6.005,2.633 7.387,2.633 L7.387,2.633 C8.682,2.633 9.972,2.931 10.269,3.004 L10.269,3.004 L10.269,0.405 C9.879,0.329 8.636,0.113 7.207,0.113 L7.207,0.113 C2.425,0.113 -0,2.464 -0,7.1 M36.367,0.254 L34.626,0.254 L34.626,13.706 L38.108,13.706 L38.108,0.254 z M24.667,0.254 L20.776,13.706 L23.74,13.706 L24.39,11.203 L28.546,11.203 L29.158,13.706 L32.802,13.706 L28.949,0.254 z M26.535,2.976 L27.964,8.882 L24.987,8.882 z M11.882,0.254 L11.882,2.934 L14.845,2.934 L14.845,13.706 L18.327,13.706 L18.327,2.934 L21.29,2.934 L21.29,0.254 z" fill="url(#Gradient_1)"/>
<path d="M34.626,1.218 L34.626,9.436 L38.108,10.279 L38.108,1.218 z M24.388,1.218 L21.692,10.541 L31.356,8.658 L29.225,1.218 z M26.535,2.976 L27.964,8.882 L24.987,8.882 z M11.882,1.218 L11.882,2.934 L14.845,2.934 L14.845,11.874 L18.327,11.196 L18.327,2.934 L21.29,2.934 L21.29,1.218 z M2.634,1.218 C0.883,2.337 -0,4.302 -0,7.1 L-0,7.1 C-0,9.334 0.57,11.043 1.695,12.18 L1.695,12.18 C2.527,13.021 3.666,13.554 5.095,13.773 L5.095,13.773 L10.71,12.679 L10.71,6.38 L6.007,6.38 L6.007,8.801 L7.628,8.801 L7.628,11.432 L7.481,11.445 C7.462,11.447 7.01,11.486 6.686,11.486 L6.686,11.486 C5.666,11.486 4.893,11.097 4.391,10.33 L4.391,10.33 C3.901,9.578 3.662,8.483 3.662,6.98 L3.662,6.98 C3.662,5.428 3.925,4.385 4.489,3.696 L4.489,3.696 C5.084,2.971 6.005,2.633 7.387,2.633 L7.387,2.633 C8.682,2.633 9.972,2.931 10.269,3.004 L10.269,3.004 L10.269,1.218 z" fill="url(#Gradient_2)"/>
<path d="M1.81,1.868 L5.908,2.808 C6.329,2.691 6.819,2.633 7.387,2.633 L7.387,2.633 C8.682,2.633 9.972,2.931 10.269,3.004 L10.269,3.004 L10.269,0.405 C9.879,0.329 8.636,0.113 7.207,0.113 L7.207,0.113 C4.815,0.113 3.014,0.701 1.81,1.868 M36.367,0.254 L34.626,0.254 L34.626,7.612 L38.108,6.494 L38.108,0.254 z M24.667,0.254 L22.807,6.684 L25.407,7.28 L26.535,2.976 L27.704,7.807 L31.352,8.644 L28.949,0.254 z M11.882,0.254 L11.882,2.934 L14.845,2.934 L14.845,4.858 L18.327,5.656 L18.327,2.934 L21.29,2.934 L21.29,0.254 z" fill="url(#Gradient_3)"/>
<g clip-path="url(#Clip_1)">
<path d="M50.181,11.841 L50.181,13.717 L49.077,13.717 L49.077,8.616 L50.775,8.616 C51.138,8.616 51.664,8.61 52.094,8.906 C52.472,9.166 52.672,9.595 52.672,10.181 C52.672,10.93 52.346,11.389 51.857,11.626 L52.901,13.717 L51.657,13.717 L50.796,11.841 z M50.181,10.923 L50.752,10.923 C50.878,10.923 51.13,10.93 51.293,10.811 C51.449,10.693 51.516,10.434 51.516,10.203 C51.516,9.981 51.449,9.773 51.301,9.654 C51.138,9.528 50.885,9.528 50.789,9.528 L50.181,9.528 z M55.658,3.478 L55.658,5.354 L54.554,5.354 L54.554,0.254 L56.251,0.254 C56.614,0.254 57.14,0.247 57.57,0.543 C57.949,0.802 58.149,1.232 58.149,1.818 C58.149,2.566 57.823,3.026 57.334,3.263 L58.378,5.354 L57.133,5.354 L56.273,3.478 z M55.658,2.559 L56.229,2.559 C56.355,2.559 56.607,2.566 56.77,2.448 C56.926,2.329 56.993,2.07 56.993,1.84 C56.993,1.618 56.926,1.41 56.777,1.291 C56.614,1.165 56.362,1.165 56.266,1.165 L55.658,1.165 z M47.091,2.559 L47.091,3.478 L47.765,3.478 L47.765,4.472 C47.765,4.472 47.536,4.538 47.276,4.538 C46.52,4.538 46.046,3.968 46.046,2.781 C46.046,1.581 46.535,1.114 47.506,1.114 C48.092,1.114 48.611,1.284 48.611,1.284 L48.67,1.284 L48.67,0.342 C48.67,0.342 48.136,0.202 47.469,0.202 C45.72,0.202 44.852,1.173 44.852,2.863 C44.852,4.502 45.668,5.42 47.291,5.42 C48.136,5.42 48.833,5.168 48.833,5.168 L48.833,2.559 z M50.271,0.254 L50.271,5.354 L53.303,5.354 L53.303,4.42 L51.412,4.42 L51.412,3.182 L52.925,3.182 L52.925,2.248 L51.412,2.248 L51.412,1.188 L53.214,1.188 L53.214,0.254 z M59.457,0.254 L59.457,5.354 L60.443,5.354 L60.443,1.618 L61.592,5.138 L62.57,5.138 L63.712,1.618 L63.712,5.354 L64.824,5.354 L64.824,0.254 L63.356,0.254 L62.17,3.679 L60.932,0.254 z M56.551,13.717 L56.305,12.816 L54.616,12.816 L54.364,13.717 L53.349,13.717 L54.883,8.616 L56.225,8.616 L57.744,13.717 z M54.869,11.94 L56.061,11.94 L55.476,9.612 z M68.856,5.354 L68.61,4.452 L66.921,4.452 L66.669,5.354 L65.653,5.354 L67.188,0.254 L68.529,0.254 L70.049,5.354 z M67.173,3.578 L68.365,3.578 L67.781,1.248 z M70.921,0.254 L70.921,5.354 L71.912,5.354 L71.912,2.322 L73.898,5.354 L74.914,5.354 L74.914,0.254 L73.921,0.254 L73.921,3.249 L72.023,0.254 z M75.718,0.254 L77.223,3.486 L77.223,5.354 L78.372,5.354 L78.372,3.456 L79.87,0.254 L78.824,0.254 L77.92,2.292 L77.016,0.254 z M44.667,8.617 L44.667,9.566 L45.853,9.566 L45.853,13.717 L47.01,13.717 L47.01,9.566 L48.195,9.566 L48.195,8.617 z M60.05,8.617 C60.488,8.617 61.14,8.625 61.696,8.936 C62.26,9.255 62.659,9.878 62.659,11.144 C62.659,12.45 62.237,13.087 61.674,13.406 C61.118,13.717 60.458,13.717 60.05,13.717 L58.597,13.717 L58.597,8.617 z M59.746,12.805 L60.169,12.805 C60.347,12.805 60.673,12.805 60.933,12.649 C61.318,12.42 61.451,11.953 61.451,11.174 C61.451,10.374 61.311,9.915 60.91,9.685 C60.636,9.529 60.347,9.529 60.169,9.529 L59.746,9.529 z M63.783,8.617 L63.783,13.717 L66.814,13.717 L66.814,12.783 L64.924,12.783 L64.924,11.545 L66.436,11.545 L66.436,10.611 L64.924,10.611 L64.924,9.551 L66.725,9.551 L66.725,8.617 z M72.607,13.717 L72.163,13.28 C71.829,13.613 71.347,13.814 70.696,13.814 C69.629,13.814 69.058,13.28 69.058,12.457 C69.058,11.783 69.436,11.397 70.066,11.115 C69.665,10.7 69.444,10.315 69.444,9.825 C69.444,9.129 69.902,8.535 70.926,8.535 C71.933,8.535 72.355,9.107 72.355,9.729 C72.355,10.374 71.903,10.767 71.377,11.123 L72.207,11.909 C72.325,11.649 72.392,11.33 72.429,11.012 L73.438,11.012 C73.363,11.597 73.17,12.116 72.852,12.576 L73.868,13.658 L73.868,13.717 z M71.673,12.746 L70.578,11.654 C70.341,11.809 70.126,12.037 70.126,12.398 C70.126,12.813 70.468,13.035 70.861,13.035 C71.185,13.035 71.473,12.894 71.673,12.746 M70.889,10.644 C71.17,10.451 71.484,10.192 71.484,9.781 C71.484,9.462 71.295,9.25 70.948,9.25 C70.608,9.25 70.426,9.462 70.426,9.811 C70.426,10.159 70.629,10.407 70.889,10.644 M76.183,13.717 L77.332,13.717 L77.332,8.617 L76.757,8.617 L76.183,8.617 z M78.845,8.617 L78.845,13.717 L79.838,13.717 L79.838,10.686 L81.825,13.717 L82.841,13.717 L82.841,8.617 L81.847,8.617 L81.847,11.612 L79.95,8.617 z M83.618,8.617 L85.153,13.717 L86.368,13.717 L87.94,8.617 L86.924,8.617 L85.849,12.398 L84.842,8.617 z M88.762,8.617 L88.762,13.717 L91.794,13.717 L91.794,12.783 L89.904,12.783 L89.904,11.545 L91.416,11.545 L91.416,10.611 L89.904,10.611 L89.904,9.551 L91.705,9.551 L91.705,8.617 z M95.684,8.729 C95.684,8.729 95.157,8.572 94.55,8.572 C93.393,8.572 92.793,9.136 92.793,10.04 C92.793,10.664 93.081,10.982 93.416,11.227 C93.994,11.649 94.727,11.842 94.727,12.346 C94.727,12.657 94.453,12.872 93.979,12.872 C93.482,12.872 92.889,12.635 92.889,12.635 L92.838,12.635 L92.838,13.576 C92.838,13.576 93.341,13.762 94.023,13.762 C95.173,13.762 95.913,13.236 95.913,12.22 C95.913,11.508 95.55,11.138 95.113,10.849 C94.594,10.508 93.979,10.315 93.979,9.892 C93.979,9.647 94.194,9.462 94.646,9.462 C95.091,9.462 95.625,9.647 95.625,9.647 L95.684,9.647 z M100,8.617 L100,9.566 L98.813,9.566 L98.813,13.717 L97.657,13.717 L97.657,9.566 L96.471,9.566 L96.471,8.617 z" fill="#646464"/>
</g>
</g>
</svg>
